<?xml version="1.0" encoding="utf-8"?>
<!-- Generator: Adobe Illustrator 28.0.0, SVG Export Plug-In . SVG Version: 6.00 Build 0)  -->
<svg version="1.1" xmlns="http://www.w3.org/2000/svg" xmlns:xlink="http://www.w3.org/1999/xlink" x="0px" y="0px"
	 viewBox="0 0 735.32 358.47" style="enable-background:new 0 0 735.32 358.47;" xml:space="preserve">
<style type="text/css">
	.st0{display:none;}
	.st1{display:inline;fill:#7B78EB;}
	.st2{opacity:0.55;}
	.st3{fill:none;stroke:#FEFDFF;stroke-width:2;stroke-linecap:round;stroke-linejoin:round;}
	.st4{fill:none;stroke:#FEFDFF;stroke-width:2;stroke-linecap:round;stroke-linejoin:round;stroke-dasharray:4.0123,7.0215;}
	.st5{opacity:0.25;fill:none;stroke:#FEFDFF;stroke-width:2;stroke-linecap:round;stroke-linejoin:round;stroke-miterlimit:10;}
	.st6{fill:none;stroke:url(#SVGID_1_);stroke-width:2;stroke-miterlimit:10;}
	.st7{fill:none;stroke:url(#SVGID_00000058574512611505449480000003157807128676154520_);stroke-width:2;stroke-miterlimit:10;}
	.st8{fill:url(#SVGID_00000061442493225319318630000001258772844280873100_);}
	.st9{fill:url(#SVGID_00000052100139495605342390000011152361601016173501_);}
	.st10{fill:url(#SVGID_00000123402285206211072230000008170562168397969044_);}
	.st11{fill:#FFFFFF;}
	.st12{font-family:'Montserrat-Regular';}
	.st13{font-size:11.2356px;}
	.st14{fill:url(#SVGID_00000124119290254403409030000014898087107557475743_);}
</style>
<g id="BACKGROUND" class="st0">
	<rect x="-7.53" y="-74.64" class="st1" width="750" height="500"/>
</g>
<g id="OBJECTS">
	<g>
		<g class="st2">
			<g>
				<path class="st3" d="M5.9,123.74c0.67,0,1.34,0,2,0.01"/>
				<path class="st4" d="M14.92,123.99c72.05,4.2,53.37,59.27,111.51,59.27c60.44,0,49.61-115.62,120.52-115.62
					c70.92,0,44.46,67.01,120.52,67.01c76.06,0,61.36-67.01,120.52-67.01c59.16,0,26.54,189.71,120.52,189.71
					c89.38,0,81.87-70.34,115.05-77.24"/>
				<path class="st3" d="M727.04,179.64c0.65-0.05,1.32-0.07,2-0.07"/>
			</g>
		</g>
		<g>
			<path class="st5" d="M729.04,8.7"/>
			<path class="st5" d="M729.04,350.45"/>
			<path class="st5" d="M5.9,350.45"/>
			<path class="st5" d="M5.9,8.7"/>
			<path class="st5" d="M126.42,8.7"/>
			<path class="st5" d="M126.42,350.45"/>
			<path class="st5" d="M246.95,8.7"/>
			<path class="st5" d="M367.47,8.7"/>
			<path class="st5" d="M367.47,350.45"/>
			<path class="st5" d="M487.99,8.7"/>
			<path class="st5" d="M487.99,350.45"/>
			<path class="st5" d="M608.51,8.7"/>
			<path class="st5" d="M608.51,350.45"/>
		</g>
		<linearGradient id="SVGID_1_" gradientUnits="userSpaceOnUse" x1="5.8999" y1="189.2441" x2="729.037" y2="189.2441">
			<stop  offset="0" style="stop-color:#FFB49B"/>
			<stop  offset="0.2615" style="stop-color:#FE9F92"/>
			<stop  offset="1" style="stop-color:#FA637A"/>
		</linearGradient>
		<path class="st6" d="M5.9,154.97c88.92,0,51.44,137.63,120.52,137.63c69.08,0,45.56-188.18,120.52-188.18
			c74.96,0,38.95,79.94,120.52,79.94c81.57,0,68.35-98.48,120.52-98.48c52.18,0,36.01,129.89,120.52,129.89
			c84.51,0,68.35-105.64,120.52-105.64"/>
		
			<linearGradient id="SVGID_00000108282359435970197860000010541229297829805746_" gradientUnits="userSpaceOnUse" x1="5.8999" y1="198.5101" x2="729.037" y2="198.5101">
			<stop  offset="0" style="stop-color:#9C90FF"/>
			<stop  offset="1" style="stop-color:#4F3EE0"/>
		</linearGradient>
		
			<path style="fill:none;stroke:url(#SVGID_00000108282359435970197860000010541229297829805746_);stroke-width:2;stroke-miterlimit:10;" d="
			M5.9,230c171.03,0,166.09,62.6,241.05,62.6c74.96,0,57.32-188.18,120.52-188.18c63.2,0,22.05,156.91,120.52,156.91
			c98.48,0,74.96-83.27,120.52-83.27c45.56,0,42.62,97.43,120.52,97.43"/>
		
			<linearGradient id="SVGID_00000129192559406149334290000016963924189117640614_" gradientUnits="userSpaceOnUse" x1="500.6165" y1="197.571" x2="494.0025" y2="241.1135">
			<stop  offset="0" style="stop-color:#9C90FF"/>
			<stop  offset="1" style="stop-color:#4F3EE0"/>
		</linearGradient>
		<circle style="fill:url(#SVGID_00000129192559406149334290000016963924189117640614_);" cx="490.93" cy="261.33" r="8.83"/>
		
			<linearGradient id="SVGID_00000070820950499566623800000008694972017638984121_" gradientUnits="userSpaceOnUse" x1="281.5501" y1="51.465" x2="245.1728" y2="107.1333">
			<stop  offset="0" style="stop-color:#FFB49B"/>
			<stop  offset="0.2615" style="stop-color:#FE9F92"/>
			<stop  offset="1" style="stop-color:#FA637A"/>
		</linearGradient>
		<circle style="fill:url(#SVGID_00000070820950499566623800000008694972017638984121_);" cx="246.95" cy="104.42" r="8.83"/>
		<g>
			
				<linearGradient id="SVGID_00000182491850089886620030000006262057719189694850_" gradientUnits="userSpaceOnUse" x1="400.6465" y1="368.4764" x2="614.3647" y2="182.8184">
				<stop  offset="0" style="stop-color:#9C90FF"/>
				<stop  offset="1" style="stop-color:#4F3EE0"/>
			</linearGradient>
			<path style="fill:url(#SVGID_00000182491850089886620030000006262057719189694850_);" d="M537.74,311.71h-99.49
				c-1.44,0-2.61-1.17-2.61-2.61v-32.99c0-1.44,1.17-2.61,2.61-2.61h99.49c1.44,0,2.61,1.17,2.61,2.61v32.99
				C540.35,310.54,539.18,311.71,537.74,311.71z"/>
			<text transform="matrix(1 0 0 1 464.9362 295.9067)" class="st11 st12 st13">Body fat</text>
		</g>
		<g>
			
				<linearGradient id="SVGID_00000176742315729435577190000014733883625639983524_" gradientUnits="userSpaceOnUse" x1="207.8971" y1="207.7513" x2="279.1117" y2="-39.5848">
				<stop  offset="0" style="stop-color:#FFB49B"/>
				<stop  offset="0.2615" style="stop-color:#FE9F92"/>
				<stop  offset="1" style="stop-color:#FA637A"/>
			</linearGradient>
			<path style="fill:url(#SVGID_00000176742315729435577190000014733883625639983524_);" d="M296.69,91.24H197.2
				c-1.44,0-2.61-1.17-2.61-2.61V55.64c0-1.44,1.17-2.61,2.61-2.61h99.49c1.44,0,2.61,1.17,2.61,2.61v32.99
				C299.31,90.07,298.14,91.24,296.69,91.24z"/>
			<text transform="matrix(1 0 0 1 223.944 75.2349)" class="st11 st12 st13">Weight</text>
		</g>
	</g>
</g>
</svg>
