<?xml version="1.0" encoding="UTF-8"?>
<svg id="Layer_1" data-name="Layer 1" xmlns="http://www.w3.org/2000/svg" viewBox="0 0 1798 399.29">
  <defs>
    <style>
      .cls-1 {
        fill: #3f3adb;
      }

      .cls-2 {
        fill: #3a3a3a;
      }
    </style>
  </defs>
  <g>
    <path class="cls-1" d="M140.87,289.5h-38.28v-82.54c0-28.53,3.41-50.03,10.24-64.5,6.34-13.41,16.34-22.47,29.99-27.19,10.56-3.66,26.66-5.49,48.28-5.49h57.55v31.21h-61.08c-15.77,0-27.27,3.05-34.5,9.14-8.13,6.83-12.19,18.45-12.19,34.87h107.78v30.72h-107.78v73.76Z"/>
    <path class="cls-1" d="M458.93,289.5h-39.14V141.49h-57.55v-31.21h154.72v31.21h-58.03v148.01Z"/>
    <path class="cls-1" d="M550.48,109.79h39.5v179.71h-39.5V109.79Z"/>
    <rect class="cls-1" x="288.62" y="110.28" width="39.5" height="179.22"/>
    <path class="cls-2" d="M460.24,57.93v10.88H1787.09V330.51H460.24v10.88H1798V57.93H460.24ZM0,341.39H180.11v-10.88H12.6V68.81H180.11v-10.88H0V341.39Z"/>
    <g>
      <g>
        <rect class="cls-1" x="211.05" y="46.26" width="194.64" height="34.18"/>
        <rect class="cls-1" x="258.98" width="97.53" height="27.51"/>
      </g>
      <g>
        <rect class="cls-1" x="211.05" y="318.85" width="194.64" height="34.18"/>
        <rect class="cls-1" x="260.23" y="371.78" width="97.53" height="27.51"/>
      </g>
    </g>
  </g>
  <path class="cls-2" d="M901.79,289.75h-39.14V141.73h-57.55v-31.21h154.72v31.21h-58.03v148.01Z"/>
  <path class="cls-2" d="M1031.02,289.75h-37.67V110.03h92.66c21.46,0,37.23,4.14,47.31,12.43,10.49,8.7,15.73,22.64,15.73,41.82,0,12.92-2.92,23.7-8.78,32.31-6.18,9.18-15.24,15.16-27.19,17.92l44.26,75.23h-42.31l-39.75-70.23h-44.26v70.23Zm46.33-147.53h-46.33v45.6h46.33c12.76,0,21.56-1.63,26.4-4.88,4.84-3.25,7.26-9.3,7.26-18.17,0-7.39-1.34-12.48-4.02-15.24-4.72-4.88-14.59-7.31-29.63-7.31Z"/>
  <path class="cls-2" d="M1211.57,289.75h-39.99l75.47-179.71h39.99l76.69,179.71h-41.94l-16.46-43.04h-78.27l-15.48,43.04Zm27.68-74.74h53.77l-27.19-68.77-26.58,68.77Z"/>
  <path class="cls-2" d="M1527.21,110.03v30.72h-62.06c-14.39,0-25.04,4.39-31.95,13.17-8.13,10.32-12.19,27.67-12.19,52.06,0,15.44,1.91,27.19,5.73,35.24,3.41,7.15,8.62,11.99,15.61,14.51,5.12,1.87,12.72,2.8,22.8,2.8h62.06v31.21h-63.52c-28.12,0-49.3-7.6-63.52-22.8-13.65-14.63-20.48-35.85-20.48-63.64,0-29.67,5.98-52.06,17.92-67.18,13.74-17.39,36.09-26.09,67.06-26.09h62.55Z"/>
  <path class="cls-2" d="M1607.66,289.75h-37.67V110.03h37.67v86.44l70.72-86.44h45.23l-72.18,88.03,72.79,91.68h-48.28l-68.28-89.25v89.25Z"/>
  <path class="cls-1" d="M718.61,289.64h-39.14V141.63h-57.55v-31.21h154.72v31.21h-58.03v148.01Z"/>
</svg>