<svg width="562" height="307" viewBox="0 0 562 307" fill="none" xmlns="http://www.w3.org/2000/svg">
<rect width="562" height="307" rx="10" fill="#3E3ADB"/>
<g filter="url(#filter0_d_204_3)">
<rect x="28" y="163" width="491" height="116.59" rx="10" fill="white"/>
<path d="M46.8123 182.742H48.6766L51.9181 190.657H52.0374L55.2789 182.742H57.1433V192.924H55.6816V185.556H55.5872L52.5843 192.909H51.3713L48.3684 185.551H48.274V192.924H46.8123V182.742ZM60.1971 195.788C59.975 195.788 59.7728 195.77 59.5905 195.733C59.4082 195.7 59.2724 195.664 59.1829 195.624L59.5408 194.406C59.8126 194.479 60.0545 194.51 60.2667 194.5C60.4788 194.49 60.6661 194.411 60.8285 194.262C60.9942 194.113 61.14 193.869 61.266 193.531L61.4499 193.024L58.6559 185.288H60.2468L62.1807 191.214H62.2603L64.1942 185.288H65.7901L62.6431 193.943C62.4973 194.341 62.3117 194.678 62.0863 194.953C61.8609 195.231 61.5924 195.44 61.2809 195.579C60.9693 195.718 60.6081 195.788 60.1971 195.788ZM72.5477 192.924L70.3006 185.288H71.8368L73.3333 190.896H73.4078L74.9092 185.288H76.4455L77.9369 190.871H78.0115L79.498 185.288H81.0342L78.7921 192.924H77.2757L75.7246 187.411H75.6102L74.0591 192.924H72.5477ZM85.4291 193.078C84.7132 193.078 84.0885 192.914 83.5548 192.586C83.0212 192.258 82.6069 191.799 82.3119 191.209C82.017 190.619 81.8695 189.93 81.8695 189.141C81.8695 188.349 82.017 187.656 82.3119 187.063C82.6069 186.47 83.0212 186.009 83.5548 185.681C84.0885 185.353 84.7132 185.189 85.4291 185.189C86.145 185.189 86.7698 185.353 87.3034 185.681C87.837 186.009 88.2513 186.47 88.5463 187.063C88.8413 187.656 88.9888 188.349 88.9888 189.141C88.9888 189.93 88.8413 190.619 88.5463 191.209C88.2513 191.799 87.837 192.258 87.3034 192.586C86.7698 192.914 86.145 193.078 85.4291 193.078ZM85.4341 191.831C85.8981 191.831 86.2826 191.708 86.5875 191.463C86.8924 191.217 87.1178 190.891 87.2637 190.483C87.4128 190.076 87.4874 189.626 87.4874 189.136C87.4874 188.649 87.4128 188.201 87.2637 187.794C87.1178 187.383 86.8924 187.053 86.5875 186.804C86.2826 186.556 85.8981 186.431 85.4341 186.431C84.9668 186.431 84.579 186.556 84.2708 186.804C83.9658 187.053 83.7388 187.383 83.5896 187.794C83.4438 188.201 83.3709 188.649 83.3709 189.136C83.3709 189.626 83.4438 190.076 83.5896 190.483C83.7388 190.891 83.9658 191.217 84.2708 191.463C84.579 191.708 84.9668 191.831 85.4341 191.831ZM90.6481 192.924V185.288H92.0849V186.501H92.1644C92.3036 186.09 92.5489 185.767 92.9002 185.532C93.2548 185.293 93.6559 185.174 94.1033 185.174C94.1961 185.174 94.3055 185.177 94.4314 185.184C94.5607 185.19 94.6618 185.198 94.7347 185.208V186.63C94.6751 186.614 94.569 186.595 94.4165 186.576C94.2641 186.552 94.1116 186.541 93.9591 186.541C93.6078 186.541 93.2946 186.615 93.0195 186.765C92.7477 186.91 92.5323 187.114 92.3732 187.376C92.2141 187.635 92.1346 187.93 92.1346 188.261V192.924H90.6481ZM97.3883 190.334L97.3784 188.519H97.6369L100.679 185.288H102.459L98.9891 188.967H98.7555L97.3883 190.334ZM96.0211 192.924V182.742H97.5076V192.924H96.0211ZM100.844 192.924L98.1092 189.295L99.1333 188.256L102.668 192.924H100.844ZM110.736 193.078C110.02 193.078 109.395 192.914 108.861 192.586C108.328 192.258 107.914 191.799 107.619 191.209C107.324 190.619 107.176 189.93 107.176 189.141C107.176 188.349 107.324 187.656 107.619 187.063C107.914 186.47 108.328 186.009 108.861 185.681C109.395 185.353 110.02 185.189 110.736 185.189C111.452 185.189 112.076 185.353 112.61 185.681C113.144 186.009 113.558 186.47 113.853 187.063C114.148 187.656 114.295 188.349 114.295 189.141C114.295 189.93 114.148 190.619 113.853 191.209C113.558 191.799 113.144 192.258 112.61 192.586C112.076 192.914 111.452 193.078 110.736 193.078ZM110.741 191.831C111.205 191.831 111.589 191.708 111.894 191.463C112.199 191.217 112.424 190.891 112.57 190.483C112.719 190.076 112.794 189.626 112.794 189.136C112.794 188.649 112.719 188.201 112.57 187.794C112.424 187.383 112.199 187.053 111.894 186.804C111.589 186.556 111.205 186.431 110.741 186.431C110.273 186.431 109.886 186.556 109.577 186.804C109.272 187.053 109.045 187.383 108.896 187.794C108.75 188.201 108.678 188.649 108.678 189.136C108.678 189.626 108.75 190.076 108.896 190.483C109.045 190.891 109.272 191.217 109.577 191.463C109.886 191.708 110.273 191.831 110.741 191.831ZM120.792 189.757V185.288H122.284V192.924H120.822V191.602H120.742C120.567 192.01 120.285 192.349 119.897 192.621C119.513 192.89 119.034 193.024 118.46 193.024C117.97 193.024 117.536 192.916 117.158 192.701C116.783 192.482 116.488 192.159 116.273 191.731C116.061 191.304 115.955 190.775 115.955 190.145V185.288H117.441V189.966C117.441 190.487 117.585 190.901 117.874 191.209C118.162 191.517 118.537 191.671 118.997 191.671C119.276 191.671 119.552 191.602 119.828 191.463C120.106 191.323 120.336 191.113 120.519 190.831C120.704 190.55 120.795 190.192 120.792 189.757ZM127.846 185.288V186.481H123.674V185.288H127.846ZM124.793 183.458H126.279V190.682C126.279 190.97 126.323 191.188 126.409 191.333C126.495 191.476 126.606 191.574 126.742 191.627C126.881 191.676 127.032 191.701 127.194 191.701C127.314 191.701 127.418 191.693 127.507 191.676C127.597 191.66 127.667 191.647 127.716 191.637L127.985 192.865C127.899 192.898 127.776 192.931 127.617 192.964C127.458 193.001 127.259 193.02 127.02 193.024C126.629 193.03 126.265 192.961 125.926 192.815C125.588 192.669 125.315 192.444 125.106 192.139C124.897 191.834 124.793 191.451 124.793 190.99V183.458ZM133.195 195.788V185.288H134.647V186.526H134.771C134.857 186.367 134.981 186.183 135.144 185.974C135.306 185.765 135.532 185.583 135.82 185.427C136.108 185.268 136.489 185.189 136.963 185.189C137.58 185.189 138.13 185.344 138.614 185.656C139.098 185.967 139.477 186.417 139.752 187.003C140.031 187.59 140.17 188.296 140.17 189.121C140.17 189.946 140.033 190.654 139.757 191.244C139.482 191.831 139.105 192.283 138.624 192.601C138.143 192.916 137.595 193.073 136.978 193.073C136.514 193.073 136.135 192.996 135.84 192.84C135.548 192.684 135.319 192.502 135.154 192.293C134.988 192.084 134.86 191.899 134.771 191.736H134.681V195.788H133.195ZM134.652 189.106C134.652 189.643 134.73 190.114 134.885 190.518C135.041 190.922 135.266 191.239 135.561 191.468C135.856 191.693 136.218 191.806 136.645 191.806C137.089 191.806 137.461 191.688 137.759 191.453C138.057 191.214 138.283 190.891 138.435 190.483C138.591 190.076 138.669 189.617 138.669 189.106C138.669 188.602 138.592 188.15 138.44 187.749C138.291 187.348 138.065 187.031 137.764 186.799C137.466 186.567 137.093 186.451 136.645 186.451C136.214 186.451 135.85 186.562 135.551 186.784C135.256 187.006 135.033 187.316 134.88 187.714C134.728 188.112 134.652 188.576 134.652 189.106ZM143.322 182.742V192.924H141.836V182.742H143.322ZM147.544 193.093C147.06 193.093 146.623 193.004 146.232 192.825C145.841 192.643 145.531 192.379 145.302 192.034C145.077 191.69 144.964 191.267 144.964 190.767C144.964 190.336 145.047 189.981 145.213 189.703C145.378 189.424 145.602 189.204 145.884 189.042C146.165 188.879 146.48 188.756 146.828 188.674C147.176 188.591 147.531 188.528 147.892 188.485C148.35 188.432 148.721 188.389 149.006 188.355C149.291 188.319 149.498 188.261 149.627 188.181C149.757 188.102 149.821 187.973 149.821 187.794V187.759C149.821 187.325 149.699 186.988 149.453 186.75C149.211 186.511 148.85 186.392 148.369 186.392C147.869 186.392 147.475 186.503 147.186 186.725C146.901 186.943 146.704 187.187 146.595 187.456L145.198 187.137C145.363 186.673 145.605 186.299 145.923 186.014C146.245 185.725 146.615 185.517 147.032 185.387C147.45 185.255 147.889 185.189 148.35 185.189C148.655 185.189 148.978 185.225 149.319 185.298C149.664 185.367 149.985 185.497 150.284 185.686C150.585 185.875 150.832 186.145 151.024 186.496C151.217 186.844 151.313 187.296 151.313 187.853V192.924H149.861V191.88H149.801C149.705 192.073 149.561 192.261 149.369 192.447C149.177 192.633 148.93 192.787 148.628 192.909C148.326 193.032 147.965 193.093 147.544 193.093ZM147.867 191.9C148.278 191.9 148.63 191.819 148.921 191.657C149.216 191.494 149.44 191.282 149.592 191.02C149.748 190.755 149.826 190.472 149.826 190.17V189.186C149.773 189.239 149.67 189.288 149.518 189.335C149.369 189.378 149.198 189.416 149.006 189.449C148.814 189.479 148.626 189.507 148.444 189.534C148.262 189.557 148.109 189.577 147.987 189.593C147.698 189.63 147.435 189.691 147.196 189.777C146.961 189.863 146.772 189.988 146.629 190.15C146.49 190.309 146.421 190.521 146.421 190.787C146.421 191.154 146.557 191.433 146.828 191.622C147.1 191.807 147.446 191.9 147.867 191.9ZM154.779 188.39V192.924H153.293V185.288H154.719V186.531H154.814C154.99 186.126 155.265 185.802 155.639 185.556C156.017 185.311 156.493 185.189 157.066 185.189C157.586 185.189 158.042 185.298 158.433 185.517C158.824 185.732 159.128 186.054 159.343 186.481C159.558 186.909 159.666 187.437 159.666 188.067V192.924H158.18V188.246C158.18 187.693 158.035 187.26 157.747 186.948C157.459 186.634 157.063 186.476 156.559 186.476C156.214 186.476 155.908 186.551 155.639 186.7C155.374 186.849 155.164 187.068 155.008 187.356C154.855 187.641 154.779 187.986 154.779 188.39Z" fill="#02003D"/>
<path d="M76.1145 246.781C75.1676 246.781 74.32 246.603 73.5719 246.248C72.8238 245.888 72.2296 245.396 71.7892 244.771C71.3536 244.146 71.1216 243.431 71.0932 242.626H73.65C73.6974 243.223 73.9554 243.71 74.4242 244.089C74.8929 244.463 75.4564 244.65 76.1145 244.65C76.6306 244.65 77.0899 244.532 77.4924 244.295C77.8948 244.058 78.2121 243.729 78.4441 243.308C78.6761 242.886 78.7897 242.406 78.785 241.866C78.7897 241.317 78.6737 240.829 78.437 240.403C78.2002 239.977 77.8759 239.643 77.464 239.402C77.052 239.155 76.5785 239.032 76.0435 239.032C75.6079 239.028 75.1794 239.108 74.758 239.274C74.3366 239.44 74.0028 239.657 73.7566 239.927L71.3773 239.537L72.1373 232.037H80.5748V234.238H74.3177L73.8986 238.095H73.9838C74.2537 237.778 74.6349 237.515 75.1273 237.306C75.6197 237.093 76.1595 236.987 76.7466 236.987C77.6273 236.987 78.4133 237.195 79.1046 237.612C79.7959 238.024 80.3404 238.592 80.7381 239.316C81.1358 240.041 81.3347 240.869 81.3347 241.802C81.3347 242.763 81.1122 243.62 80.6671 244.373C80.2267 245.121 79.6136 245.711 78.8276 246.142C78.0463 246.568 77.142 246.781 76.1145 246.781ZM83.714 246.582V244.679L88.7637 239.728C89.2466 239.241 89.6491 238.807 89.9711 238.429C90.293 238.05 90.5345 237.683 90.6955 237.328C90.8565 236.973 90.937 236.594 90.937 236.191C90.937 235.732 90.8328 235.339 90.6245 235.012C90.4161 234.681 90.1297 234.425 89.7651 234.245C89.4005 234.065 88.9862 233.975 88.5222 233.975C88.044 233.975 87.6249 234.075 87.2651 234.274C86.9053 234.468 86.6259 234.745 86.427 235.105C86.2329 235.465 86.1358 235.893 86.1358 236.39H83.6287C83.6287 235.467 83.8394 234.664 84.2608 233.983C84.6822 233.301 85.2623 232.773 86.0009 232.399C86.7443 232.025 87.5965 231.838 88.5577 231.838C89.5331 231.838 90.3901 232.02 91.1287 232.385C91.8674 232.749 92.4403 233.249 92.8475 233.883C93.2594 234.518 93.4654 235.242 93.4654 236.056C93.4654 236.601 93.3612 237.136 93.1529 237.662C92.9446 238.187 92.5776 238.77 92.052 239.409C91.5312 240.048 90.7997 240.822 89.8574 241.731L87.3503 244.281V244.38H93.6856V246.582H83.714Z" fill="#02003D"/>
<path d="M101.645 244.537V243.961C101.645 243.539 101.734 243.15 101.912 242.795C102.093 242.44 102.356 242.154 102.7 241.937C103.045 241.721 103.462 241.612 103.952 241.612C104.456 241.612 104.879 241.721 105.22 241.937C105.561 242.15 105.818 242.434 105.992 242.789C106.17 243.145 106.258 243.535 106.258 243.961V244.537C106.258 244.959 106.17 245.348 105.992 245.703C105.814 246.058 105.553 246.344 105.209 246.561C104.868 246.777 104.449 246.886 103.952 246.886C103.455 246.886 103.034 246.777 102.689 246.561C102.345 246.344 102.084 246.058 101.906 245.703C101.732 245.348 101.645 244.959 101.645 244.537ZM103.036 243.961V244.537C103.036 244.817 103.103 245.075 103.238 245.309C103.373 245.543 103.611 245.661 103.952 245.661C104.296 245.661 104.532 245.545 104.66 245.314C104.792 245.08 104.857 244.821 104.857 244.537V243.961C104.857 243.677 104.795 243.418 104.671 243.184C104.547 242.946 104.307 242.827 103.952 242.827C103.618 242.827 103.382 242.946 103.243 243.184C103.105 243.418 103.036 243.677 103.036 243.961ZM96.1003 238.294V237.718C96.1003 237.292 96.1909 236.902 96.372 236.547C96.5531 236.191 96.8159 235.907 97.1603 235.694C97.5048 235.478 97.9221 235.369 98.4121 235.369C98.9128 235.369 99.3336 235.478 99.6745 235.694C100.019 235.907 100.278 236.191 100.452 236.547C100.626 236.902 100.713 237.292 100.713 237.718V238.294C100.713 238.72 100.624 239.11 100.447 239.466C100.273 239.817 100.014 240.099 99.6692 240.312C99.3248 240.526 98.9057 240.632 98.4121 240.632C97.9114 240.632 97.4888 240.526 97.1444 240.312C96.8035 240.099 96.5442 239.815 96.3667 239.46C96.1891 239.105 96.1003 238.716 96.1003 238.294ZM97.5012 237.718V238.294C97.5012 238.578 97.5669 238.837 97.6983 239.071C97.8333 239.302 98.0712 239.418 98.4121 239.418C98.753 239.418 98.9874 239.302 99.1152 239.071C99.2466 238.837 99.3123 238.578 99.3123 238.294V237.718C99.3123 237.434 99.2502 237.175 99.1259 236.941C99.0016 236.703 98.7637 236.584 98.4121 236.584C98.0748 236.584 97.8386 236.703 97.7037 236.941C97.5687 237.179 97.5012 237.438 97.5012 237.718ZM96.7076 246.582L104.208 235.673H105.539L98.0392 246.582H96.7076Z" fill="#ADB5CE"/>
<path d="M59.0813 256.736H58.0245C57.962 256.432 57.8527 256.165 57.6964 255.935C57.543 255.705 57.3555 255.512 57.1339 255.356C56.9152 255.197 56.6723 255.077 56.4052 254.998C56.1382 254.918 55.8598 254.878 55.57 254.878C55.0416 254.878 54.5629 255.012 54.1339 255.279C53.7078 255.546 53.3683 255.94 53.1154 256.459C52.8654 256.979 52.7404 257.617 52.7404 258.373C52.7404 259.128 52.8654 259.766 53.1154 260.286C53.3683 260.806 53.7078 261.2 54.1339 261.467C54.5629 261.734 55.0416 261.867 55.57 261.867C55.8598 261.867 56.1382 261.827 56.4052 261.748C56.6723 261.668 56.9152 261.55 57.1339 261.394C57.3555 261.235 57.543 261.04 57.6964 260.81C57.8527 260.577 57.962 260.31 58.0245 260.009H59.0813C59.0018 260.455 58.8569 260.854 58.6467 261.207C58.4365 261.559 58.1751 261.859 57.8626 262.106C57.5501 262.35 57.1992 262.536 56.81 262.664C56.4237 262.792 56.0103 262.856 55.57 262.856C54.8257 262.856 54.1637 262.674 53.5842 262.31C53.0046 261.947 52.5487 261.43 52.2163 260.759C51.8839 260.089 51.7177 259.293 51.7177 258.373C51.7177 257.452 51.8839 256.657 52.2163 255.986C52.5487 255.316 53.0046 254.799 53.5842 254.435C54.1637 254.072 54.8257 253.89 55.57 253.89C56.0103 253.89 56.4237 253.954 56.81 254.082C57.1992 254.209 57.5501 254.397 57.8626 254.644C58.1751 254.888 58.4365 255.187 58.6467 255.539C58.8569 255.888 59.0018 256.288 59.0813 256.736ZM63.3118 262.873C62.7209 262.873 62.2024 262.732 61.7564 262.451C61.3132 262.17 60.9666 261.776 60.7166 261.271C60.4695 260.765 60.3459 260.174 60.3459 259.498C60.3459 258.816 60.4695 258.221 60.7166 257.712C60.9666 257.204 61.3132 256.809 61.7564 256.528C62.2024 256.246 62.7209 256.106 63.3118 256.106C63.9027 256.106 64.4198 256.246 64.863 256.528C65.309 256.809 65.6556 257.204 65.9027 257.712C66.1527 258.221 66.2777 258.816 66.2777 259.498C66.2777 260.174 66.1527 260.765 65.9027 261.271C65.6556 261.776 65.309 262.17 64.863 262.451C64.4198 262.732 63.9027 262.873 63.3118 262.873ZM63.3118 261.969C63.7607 261.969 64.13 261.854 64.4198 261.624C64.7095 261.394 64.924 261.092 65.0632 260.717C65.2024 260.342 65.272 259.935 65.272 259.498C65.272 259.06 65.2024 258.653 65.0632 258.275C64.924 257.897 64.7095 257.592 64.4198 257.359C64.13 257.126 63.7607 257.009 63.3118 257.009C62.863 257.009 62.4936 257.126 62.2039 257.359C61.9141 257.592 61.6996 257.897 61.5604 258.275C61.4212 258.653 61.3516 259.06 61.3516 259.498C61.3516 259.935 61.4212 260.342 61.5604 260.717C61.6996 261.092 61.9141 261.394 62.2039 261.624C62.4936 261.854 62.863 261.969 63.3118 261.969ZM68.8186 258.799V262.736H67.8129V256.191H68.7845V257.214H68.8697C69.0231 256.881 69.2561 256.614 69.5686 256.413C69.8811 256.208 70.2845 256.106 70.7788 256.106C71.222 256.106 71.6098 256.197 71.9421 256.378C72.2745 256.557 72.5331 256.83 72.7177 257.197C72.9024 257.56 72.9947 258.021 72.9947 258.577V262.736H71.989V258.646C71.989 258.131 71.8555 257.731 71.5884 257.444C71.3214 257.154 70.9549 257.009 70.489 257.009C70.168 257.009 69.8811 257.079 69.6282 257.218C69.3782 257.357 69.1808 257.56 69.0359 257.827C68.891 258.094 68.8186 258.418 68.8186 258.799ZM79.4688 257.657L78.5654 257.913C78.5085 257.762 78.4247 257.616 78.3139 257.474C78.206 257.329 78.0583 257.209 77.8708 257.116C77.6833 257.022 77.4432 256.975 77.1506 256.975C76.75 256.975 76.4162 257.067 76.1492 257.252C75.885 257.434 75.7529 257.665 75.7529 257.947C75.7529 258.197 75.8438 258.394 76.0256 258.539C76.2074 258.684 76.4915 258.805 76.8779 258.901L77.8495 259.14C78.4347 259.282 78.8708 259.499 79.1577 259.792C79.4446 260.082 79.5881 260.455 79.5881 260.913C79.5881 261.288 79.4801 261.623 79.2642 261.918C79.0512 262.214 78.7529 262.447 78.3693 262.617C77.9858 262.788 77.5398 262.873 77.0313 262.873C76.3637 262.873 75.8111 262.728 75.3736 262.438C74.9361 262.148 74.6591 261.725 74.5426 261.168L75.4972 260.93C75.5881 261.282 75.76 261.546 76.0128 261.722C76.2685 261.898 76.6023 261.986 77.0142 261.986C77.483 261.986 77.8551 261.887 78.1307 261.688C78.4091 261.486 78.5483 261.245 78.5483 260.964C78.5483 260.736 78.4688 260.546 78.3097 260.393C78.1506 260.236 77.9063 260.12 77.5767 260.043L76.4858 259.788C75.8864 259.646 75.446 259.425 75.1648 259.127C74.8864 258.826 74.7472 258.45 74.7472 257.998C74.7472 257.628 74.8509 257.302 75.0583 257.018C75.2685 256.734 75.554 256.511 75.9148 256.349C76.2784 256.187 76.6904 256.106 77.1506 256.106C77.7983 256.106 78.3068 256.248 78.6762 256.532C79.0483 256.816 79.3125 257.191 79.4688 257.657ZM81.1019 262.736V256.191H82.1076V262.736H81.1019ZM81.6133 255.1C81.4173 255.1 81.2482 255.033 81.1062 254.9C80.967 254.766 80.8974 254.606 80.8974 254.418C80.8974 254.231 80.967 254.07 81.1062 253.937C81.2482 253.803 81.4173 253.736 81.6133 253.736C81.8093 253.736 81.9769 253.803 82.1161 253.937C82.2582 254.07 82.3292 254.231 82.3292 254.418C82.3292 254.606 82.2582 254.766 82.1161 254.9C81.9769 255.033 81.8093 255.1 81.6133 255.1ZM88.586 257.657L87.6826 257.913C87.6257 257.762 87.5419 257.616 87.4311 257.474C87.3232 257.329 87.1755 257.209 86.988 257.116C86.8005 257.022 86.5604 256.975 86.2678 256.975C85.8672 256.975 85.5334 257.067 85.2664 257.252C85.0022 257.434 84.8701 257.665 84.8701 257.947C84.8701 258.197 84.961 258.394 85.1428 258.539C85.3246 258.684 85.6087 258.805 85.9951 258.901L86.9666 259.14C87.5519 259.282 87.988 259.499 88.2749 259.792C88.5618 260.082 88.7053 260.455 88.7053 260.913C88.7053 261.288 88.5973 261.623 88.3814 261.918C88.1683 262.214 87.8701 262.447 87.4865 262.617C87.103 262.788 86.657 262.873 86.1485 262.873C85.4808 262.873 84.9283 262.728 84.4908 262.438C84.0533 262.148 83.7763 261.725 83.6598 261.168L84.6144 260.93C84.7053 261.282 84.8772 261.546 85.13 261.722C85.3857 261.898 85.7195 261.986 86.1314 261.986C86.6002 261.986 86.9723 261.887 87.2479 261.688C87.5263 261.486 87.6655 261.245 87.6655 260.964C87.6655 260.736 87.586 260.546 87.4269 260.393C87.2678 260.236 87.0235 260.12 86.6939 260.043L85.603 259.788C85.0036 259.646 84.5632 259.425 84.282 259.127C84.0036 258.826 83.8644 258.45 83.8644 257.998C83.8644 257.628 83.9681 257.302 84.1755 257.018C84.3857 256.734 84.6712 256.511 85.032 256.349C85.3956 256.187 85.8076 256.106 86.2678 256.106C86.9155 256.106 87.424 256.248 87.7933 256.532C88.1655 256.816 88.4297 257.191 88.586 257.657ZM93.0657 256.191V257.043H89.6737V256.191H93.0657ZM90.6623 254.623H91.668V260.861C91.668 261.146 91.7092 261.359 91.7916 261.501C91.8768 261.64 91.9848 261.734 92.1154 261.782C92.249 261.827 92.3896 261.85 92.5373 261.85C92.6481 261.85 92.739 261.844 92.81 261.833C92.8811 261.819 92.9379 261.807 92.9805 261.799L93.185 262.702C93.1169 262.728 93.0217 262.753 92.8995 262.779C92.7774 262.807 92.6225 262.822 92.435 262.822C92.1509 262.822 91.8725 262.761 91.5998 262.638C91.3299 262.516 91.1055 262.33 90.9265 262.08C90.7504 261.83 90.6623 261.515 90.6623 261.134V254.623ZM97.2525 262.873C96.6218 262.873 96.0778 262.734 95.6204 262.455C95.1659 262.174 94.815 261.782 94.5679 261.279C94.3235 260.773 94.2014 260.185 94.2014 259.515C94.2014 258.844 94.3235 258.253 94.5679 257.742C94.815 257.228 95.1588 256.827 95.5991 256.54C96.0423 256.251 96.5593 256.106 97.1502 256.106C97.4911 256.106 97.8278 256.163 98.1602 256.276C98.4926 256.39 98.7951 256.575 99.0679 256.83C99.3406 257.083 99.5579 257.418 99.7198 257.836C99.8818 258.253 99.9627 258.768 99.9627 259.378V259.805H94.9173V258.935H98.94C98.94 258.566 98.8661 258.236 98.7184 257.947C98.5735 257.657 98.3661 257.428 98.0963 257.261C97.8292 257.093 97.5139 257.009 97.1502 257.009C96.7497 257.009 96.4031 257.109 96.1105 257.307C95.8207 257.503 95.5977 257.759 95.4414 258.075C95.2852 258.39 95.2071 258.728 95.2071 259.089V259.668C95.2071 260.163 95.2923 260.582 95.4627 260.925C95.636 261.266 95.8761 261.526 96.1829 261.705C96.4897 261.881 96.8463 261.969 97.2525 261.969C97.5167 261.969 97.7554 261.932 97.9684 261.859C98.1843 261.782 98.3704 261.668 98.5267 261.518C98.6829 261.364 98.8036 261.174 98.8889 260.947L99.8605 261.219C99.7582 261.549 99.5863 261.839 99.3448 262.089C99.1034 262.336 98.8051 262.529 98.45 262.668C98.0948 262.805 97.6957 262.873 97.2525 262.873ZM102.498 258.799V262.736H101.493V256.191H102.464V257.214H102.549C102.703 256.881 102.936 256.614 103.248 256.413C103.561 256.208 103.964 256.106 104.458 256.106C104.902 256.106 105.289 256.197 105.622 256.378C105.954 256.557 106.213 256.83 106.397 257.197C106.582 257.56 106.674 258.021 106.674 258.577V262.736H105.669V258.646C105.669 258.131 105.535 257.731 105.268 257.444C105.001 257.154 104.635 257.009 104.169 257.009C103.848 257.009 103.561 257.079 103.308 257.218C103.058 257.357 102.86 257.56 102.716 257.827C102.571 258.094 102.498 258.418 102.498 258.799ZM111.171 262.873C110.558 262.873 110.029 262.728 109.586 262.438C109.143 262.148 108.802 261.749 108.563 261.241C108.325 260.732 108.205 260.151 108.205 259.498C108.205 258.833 108.327 258.246 108.572 257.738C108.819 257.227 109.163 256.827 109.603 256.54C110.046 256.251 110.563 256.106 111.154 256.106C111.614 256.106 112.029 256.191 112.398 256.361C112.768 256.532 113.07 256.771 113.306 257.077C113.542 257.384 113.688 257.742 113.745 258.151H112.739C112.663 257.853 112.492 257.589 112.228 257.359C111.967 257.126 111.614 257.009 111.171 257.009C110.779 257.009 110.435 257.111 110.14 257.316C109.847 257.518 109.619 257.803 109.454 258.173C109.292 258.539 109.211 258.969 109.211 259.464C109.211 259.969 109.291 260.41 109.45 260.785C109.612 261.16 109.839 261.451 110.131 261.658C110.427 261.866 110.773 261.969 111.171 261.969C111.433 261.969 111.67 261.924 111.883 261.833C112.096 261.742 112.276 261.611 112.424 261.441C112.572 261.271 112.677 261.066 112.739 260.827H113.745C113.688 261.214 113.548 261.562 113.323 261.871C113.102 262.178 112.808 262.423 112.441 262.604C112.077 262.783 111.654 262.873 111.171 262.873ZM115.863 265.191C115.692 265.191 115.541 265.177 115.407 265.148C115.273 265.123 115.181 265.097 115.13 265.072L115.386 264.185C115.63 264.248 115.846 264.271 116.033 264.253C116.221 264.236 116.387 264.153 116.532 264.002C116.68 263.854 116.815 263.614 116.937 263.282L117.124 262.771L114.704 256.191H115.795L117.602 261.407H117.67L119.477 256.191H120.567L117.789 263.691C117.664 264.029 117.509 264.309 117.325 264.53C117.14 264.755 116.925 264.921 116.681 265.029C116.44 265.137 116.167 265.191 115.863 265.191Z" fill="#ADB5CE"/>
<path d="M176.943 232.037V246.582H174.308V234.6H174.223L170.821 236.774V234.359L174.436 232.037H176.943ZM180.636 246.582V244.679L185.686 239.728C186.169 239.241 186.572 238.807 186.894 238.429C187.216 238.05 187.457 237.683 187.618 237.328C187.779 236.973 187.859 236.594 187.859 236.191C187.859 235.732 187.755 235.339 187.547 235.012C187.339 234.681 187.052 234.425 186.688 234.245C186.323 234.065 185.909 233.975 185.445 233.975C184.966 233.975 184.547 234.075 184.188 234.274C183.828 234.468 183.548 234.745 183.35 235.105C183.155 235.465 183.058 235.893 183.058 236.39H180.551C180.551 235.467 180.762 234.664 181.183 233.983C181.605 233.301 182.185 232.773 182.923 232.399C183.667 232.025 184.519 231.838 185.48 231.838C186.456 231.838 187.313 232.02 188.051 232.385C188.79 232.749 189.363 233.249 189.77 233.883C190.182 234.518 190.388 235.242 190.388 236.056C190.388 236.601 190.284 237.136 190.075 237.662C189.867 238.187 189.5 238.77 188.975 239.409C188.454 240.048 187.722 240.822 186.78 241.731L184.273 244.281V244.38H190.608V246.582H180.636Z" fill="#02003D"/>
<path d="M195.793 246.726C195.15 246.726 194.575 246.561 194.067 246.23C193.559 245.9 193.158 245.421 192.863 244.792C192.568 244.164 192.421 243.4 192.421 242.502C192.421 241.593 192.57 240.826 192.868 240.201C193.17 239.572 193.577 239.098 194.088 238.778C194.6 238.455 195.169 238.294 195.798 238.294C196.277 238.294 196.672 238.375 196.981 238.539C197.29 238.699 197.535 238.892 197.716 239.119C197.897 239.343 198.037 239.554 198.136 239.753H198.216V235.673H200.15V246.582H198.254V245.293H198.136C198.037 245.492 197.893 245.703 197.705 245.927C197.517 246.147 197.268 246.335 196.959 246.491C196.65 246.648 196.261 246.726 195.793 246.726ZM196.331 245.144C196.739 245.144 197.087 245.034 197.375 244.814C197.662 244.59 197.881 244.279 198.03 243.881C198.179 243.484 198.254 243.02 198.254 242.491C198.254 241.962 198.179 241.502 198.03 241.112C197.884 240.721 197.668 240.417 197.38 240.201C197.096 239.984 196.746 239.876 196.331 239.876C195.901 239.876 195.542 239.988 195.255 240.211C194.967 240.435 194.75 240.744 194.605 241.138C194.459 241.532 194.386 241.983 194.386 242.491C194.386 243.002 194.459 243.459 194.605 243.86C194.754 244.258 194.972 244.572 195.26 244.803C195.551 245.03 195.908 245.144 196.331 245.144Z" fill="#ADB5CE"/>
<path d="M159.051 256.736H157.994C157.931 256.432 157.822 256.165 157.666 255.935C157.512 255.705 157.325 255.512 157.103 255.356C156.885 255.197 156.642 255.077 156.375 254.998C156.108 254.918 155.829 254.878 155.539 254.878C155.011 254.878 154.532 255.012 154.103 255.279C153.677 255.546 153.338 255.94 153.085 256.459C152.835 256.979 152.71 257.617 152.71 258.373C152.71 259.128 152.835 259.766 153.085 260.286C153.338 260.806 153.677 261.2 154.103 261.467C154.532 261.734 155.011 261.867 155.539 261.867C155.829 261.867 156.108 261.827 156.375 261.748C156.642 261.668 156.885 261.55 157.103 261.394C157.325 261.235 157.512 261.04 157.666 260.81C157.822 260.577 157.931 260.31 157.994 260.009H159.051C158.971 260.455 158.826 260.854 158.616 261.207C158.406 261.559 158.144 261.859 157.832 262.106C157.519 262.35 157.169 262.536 156.779 262.664C156.393 262.792 155.98 262.856 155.539 262.856C154.795 262.856 154.133 262.674 153.554 262.31C152.974 261.947 152.518 261.43 152.186 260.759C151.853 260.089 151.687 259.293 151.687 258.373C151.687 257.452 151.853 256.657 152.186 255.986C152.518 255.316 152.974 254.799 153.554 254.435C154.133 254.072 154.795 253.89 155.539 253.89C155.98 253.89 156.393 253.954 156.779 254.082C157.169 254.209 157.519 254.397 157.832 254.644C158.144 254.888 158.406 255.187 158.616 255.539C158.826 255.888 158.971 256.288 159.051 256.736ZM163.281 262.873C162.69 262.873 162.172 262.732 161.726 262.451C161.283 262.17 160.936 261.776 160.686 261.271C160.439 260.765 160.315 260.174 160.315 259.498C160.315 258.816 160.439 258.221 160.686 257.712C160.936 257.204 161.283 256.809 161.726 256.528C162.172 256.246 162.69 256.106 163.281 256.106C163.872 256.106 164.389 256.246 164.832 256.528C165.278 256.809 165.625 257.204 165.872 257.712C166.122 258.221 166.247 258.816 166.247 259.498C166.247 260.174 166.122 260.765 165.872 261.271C165.625 261.776 165.278 262.17 164.832 262.451C164.389 262.732 163.872 262.873 163.281 262.873ZM163.281 261.969C163.73 261.969 164.099 261.854 164.389 261.624C164.679 261.394 164.893 261.092 165.033 260.717C165.172 260.342 165.241 259.935 165.241 259.498C165.241 259.06 165.172 258.653 165.033 258.275C164.893 257.897 164.679 257.592 164.389 257.359C164.099 257.126 163.73 257.009 163.281 257.009C162.832 257.009 162.463 257.126 162.173 257.359C161.883 257.592 161.669 257.897 161.53 258.275C161.391 258.653 161.321 259.06 161.321 259.498C161.321 259.935 161.391 260.342 161.53 260.717C161.669 261.092 161.883 261.394 162.173 261.624C162.463 261.854 162.832 261.969 163.281 261.969ZM168.788 258.799V262.736H167.782V256.191H168.754V257.214H168.839C168.992 256.881 169.225 256.614 169.538 256.413C169.85 256.208 170.254 256.106 170.748 256.106C171.191 256.106 171.579 256.197 171.912 256.378C172.244 256.557 172.502 256.83 172.687 257.197C172.872 257.56 172.964 258.021 172.964 258.577V262.736H171.958V258.646C171.958 258.131 171.825 257.731 171.558 257.444C171.291 257.154 170.924 257.009 170.458 257.009C170.137 257.009 169.85 257.079 169.598 257.218C169.348 257.357 169.15 257.56 169.005 257.827C168.86 258.094 168.788 258.418 168.788 258.799ZM179.438 257.657L178.535 257.913C178.478 257.762 178.394 257.616 178.283 257.474C178.175 257.329 178.028 257.209 177.84 257.116C177.653 257.022 177.413 256.975 177.12 256.975C176.719 256.975 176.386 257.067 176.119 257.252C175.854 257.434 175.722 257.665 175.722 257.947C175.722 258.197 175.813 258.394 175.995 258.539C176.177 258.684 176.461 258.805 176.847 258.901L177.819 259.14C178.404 259.282 178.84 259.499 179.127 259.792C179.414 260.082 179.557 260.455 179.557 260.913C179.557 261.288 179.449 261.623 179.234 261.918C179.021 262.214 178.722 262.447 178.339 262.617C177.955 262.788 177.509 262.873 177.001 262.873C176.333 262.873 175.78 262.728 175.343 262.438C174.905 262.148 174.628 261.725 174.512 261.168L175.467 260.93C175.557 261.282 175.729 261.546 175.982 261.722C176.238 261.898 176.572 261.986 176.984 261.986C177.452 261.986 177.824 261.887 178.1 261.688C178.378 261.486 178.518 261.245 178.518 260.964C178.518 260.736 178.438 260.546 178.279 260.393C178.12 260.236 177.876 260.12 177.546 260.043L176.455 259.788C175.856 259.646 175.415 259.425 175.134 259.127C174.856 258.826 174.717 258.45 174.717 257.998C174.717 257.628 174.82 257.302 175.028 257.018C175.238 256.734 175.523 256.511 175.884 256.349C176.248 256.187 176.66 256.106 177.12 256.106C177.768 256.106 178.276 256.248 178.646 256.532C179.018 256.816 179.282 257.191 179.438 257.657ZM181.071 262.736V256.191H182.077V262.736H181.071ZM181.583 255.1C181.387 255.1 181.218 255.033 181.076 254.9C180.936 254.766 180.867 254.606 180.867 254.418C180.867 254.231 180.936 254.07 181.076 253.937C181.218 253.803 181.387 253.736 181.583 253.736C181.779 253.736 181.946 253.803 182.086 253.937C182.228 254.07 182.299 254.231 182.299 254.418C182.299 254.606 182.228 254.766 182.086 254.9C181.946 255.033 181.779 255.1 181.583 255.1ZM188.555 257.657L187.652 257.913C187.595 257.762 187.511 257.616 187.4 257.474C187.293 257.329 187.145 257.209 186.957 257.116C186.77 257.022 186.53 256.975 186.237 256.975C185.837 256.975 185.503 257.067 185.236 257.252C184.972 257.434 184.839 257.665 184.839 257.947C184.839 258.197 184.93 258.394 185.112 258.539C185.294 258.684 185.578 258.805 185.964 258.901L186.936 259.14C187.521 259.282 187.957 259.499 188.244 259.792C188.531 260.082 188.675 260.455 188.675 260.913C188.675 261.288 188.567 261.623 188.351 261.918C188.138 262.214 187.839 262.447 187.456 262.617C187.072 262.788 186.626 262.873 186.118 262.873C185.45 262.873 184.898 262.728 184.46 262.438C184.023 262.148 183.746 261.725 183.629 261.168L184.584 260.93C184.675 261.282 184.847 261.546 185.099 261.722C185.355 261.898 185.689 261.986 186.101 261.986C186.57 261.986 186.942 261.887 187.217 261.688C187.496 261.486 187.635 261.245 187.635 260.964C187.635 260.736 187.555 260.546 187.396 260.393C187.237 260.236 186.993 260.12 186.663 260.043L185.572 259.788C184.973 259.646 184.533 259.425 184.251 259.127C183.973 258.826 183.834 258.45 183.834 257.998C183.834 257.628 183.937 257.302 184.145 257.018C184.355 256.734 184.641 256.511 185.001 256.349C185.365 256.187 185.777 256.106 186.237 256.106C186.885 256.106 187.393 256.248 187.763 256.532C188.135 256.816 188.399 257.191 188.555 257.657ZM193.035 256.191V257.043H189.643V256.191H193.035ZM190.632 254.623H191.637V260.861C191.637 261.146 191.679 261.359 191.761 261.501C191.846 261.64 191.954 261.734 192.085 261.782C192.218 261.827 192.359 261.85 192.507 261.85C192.617 261.85 192.708 261.844 192.779 261.833C192.85 261.819 192.907 261.807 192.95 261.799L193.154 262.702C193.086 262.728 192.991 262.753 192.869 262.779C192.747 262.807 192.592 262.822 192.404 262.822C192.12 262.822 191.842 262.761 191.569 262.638C191.299 262.516 191.075 262.33 190.896 262.08C190.72 261.83 190.632 261.515 190.632 261.134V254.623ZM197.222 262.873C196.591 262.873 196.047 262.734 195.59 262.455C195.135 262.174 194.784 261.782 194.537 261.279C194.293 260.773 194.171 260.185 194.171 259.515C194.171 258.844 194.293 258.253 194.537 257.742C194.784 257.228 195.128 256.827 195.568 256.54C196.012 256.251 196.529 256.106 197.12 256.106C197.461 256.106 197.797 256.163 198.13 256.276C198.462 256.39 198.764 256.575 199.037 256.83C199.31 257.083 199.527 257.418 199.689 257.836C199.851 258.253 199.932 258.768 199.932 259.378V259.805H194.887V258.935H198.909C198.909 258.566 198.836 258.236 198.688 257.947C198.543 257.657 198.336 257.428 198.066 257.261C197.799 257.093 197.483 257.009 197.12 257.009C196.719 257.009 196.372 257.109 196.08 257.307C195.79 257.503 195.567 257.759 195.411 258.075C195.255 258.39 195.176 258.728 195.176 259.089V259.668C195.176 260.163 195.262 260.582 195.432 260.925C195.605 261.266 195.845 261.526 196.152 261.705C196.459 261.881 196.816 261.969 197.222 261.969C197.486 261.969 197.725 261.932 197.938 261.859C198.154 261.782 198.34 261.668 198.496 261.518C198.652 261.364 198.773 261.174 198.858 260.947L199.83 261.219C199.728 261.549 199.556 261.839 199.314 262.089C199.073 262.336 198.774 262.529 198.419 262.668C198.064 262.805 197.665 262.873 197.222 262.873ZM202.468 258.799V262.736H201.462V256.191H202.434V257.214H202.519C202.672 256.881 202.905 256.614 203.218 256.413C203.53 256.208 203.934 256.106 204.428 256.106C204.871 256.106 205.259 256.197 205.591 256.378C205.924 256.557 206.182 256.83 206.367 257.197C206.551 257.56 206.644 258.021 206.644 258.577V262.736H205.638V258.646C205.638 258.131 205.505 257.731 205.237 257.444C204.97 257.154 204.604 257.009 204.138 257.009C203.817 257.009 203.53 257.079 203.277 257.218C203.027 257.357 202.83 257.56 202.685 257.827C202.54 258.094 202.468 258.418 202.468 258.799ZM211.141 262.873C210.527 262.873 209.999 262.728 209.555 262.438C209.112 262.148 208.771 261.749 208.533 261.241C208.294 260.732 208.175 260.151 208.175 259.498C208.175 258.833 208.297 258.246 208.541 257.738C208.788 257.227 209.132 256.827 209.572 256.54C210.016 256.251 210.533 256.106 211.124 256.106C211.584 256.106 211.999 256.191 212.368 256.361C212.737 256.532 213.04 256.771 213.275 257.077C213.511 257.384 213.658 257.742 213.714 258.151H212.709C212.632 257.853 212.462 257.589 212.197 257.359C211.936 257.126 211.584 257.009 211.141 257.009C210.749 257.009 210.405 257.111 210.109 257.316C209.817 257.518 209.588 257.803 209.423 258.173C209.261 258.539 209.18 258.969 209.18 259.464C209.18 259.969 209.26 260.41 209.419 260.785C209.581 261.16 209.808 261.451 210.101 261.658C210.396 261.866 210.743 261.969 211.141 261.969C211.402 261.969 211.639 261.924 211.852 261.833C212.065 261.742 212.246 261.611 212.393 261.441C212.541 261.271 212.646 261.066 212.709 260.827H213.714C213.658 261.214 213.517 261.562 213.293 261.871C213.071 262.178 212.777 262.423 212.41 262.604C212.047 262.783 211.624 262.873 211.141 262.873ZM215.832 265.191C215.662 265.191 215.51 265.177 215.376 265.148C215.243 265.123 215.15 265.097 215.099 265.072L215.355 264.185C215.599 264.248 215.815 264.271 216.003 264.253C216.19 264.236 216.356 264.153 216.501 264.002C216.649 263.854 216.784 263.614 216.906 263.282L217.094 262.771L214.673 256.191H215.764L217.571 261.407H217.639L219.446 256.191H220.537L217.758 263.691C217.633 264.029 217.479 264.309 217.294 264.53C217.109 264.755 216.895 264.921 216.65 265.029C216.409 265.137 216.136 265.191 215.832 265.191Z" fill="#ADB5CE"/>
<path d="M271.715 246.781C271.019 246.776 270.339 246.655 269.676 246.419C269.014 246.177 268.417 245.787 267.887 245.247C267.356 244.702 266.935 243.98 266.622 243.081C266.31 242.176 266.156 241.056 266.161 239.721C266.161 238.476 266.293 237.366 266.559 236.39C266.824 235.415 267.205 234.591 267.702 233.919C268.199 233.242 268.798 232.725 269.499 232.37C270.204 232.015 270.993 231.838 271.864 231.838C272.778 231.838 273.587 232.018 274.293 232.377C275.003 232.737 275.576 233.23 276.012 233.855C276.447 234.475 276.717 235.176 276.821 235.957H274.229C274.096 235.398 273.824 234.953 273.412 234.622C273.005 234.286 272.489 234.118 271.864 234.118C270.855 234.118 270.079 234.556 269.534 235.431C268.995 236.307 268.722 237.51 268.718 239.039H268.817C269.049 238.623 269.35 238.265 269.719 237.967C270.088 237.669 270.505 237.439 270.969 237.278C271.438 237.112 271.933 237.029 272.453 237.029C273.306 237.029 274.07 237.233 274.747 237.64C275.429 238.047 275.969 238.609 276.367 239.324C276.765 240.034 276.961 240.848 276.956 241.767C276.961 242.723 276.743 243.583 276.303 244.345C275.863 245.102 275.249 245.699 274.463 246.135C273.677 246.57 272.761 246.786 271.715 246.781ZM271.701 244.65C272.217 244.65 272.678 244.525 273.086 244.274C273.493 244.023 273.815 243.684 274.051 243.258C274.288 242.832 274.404 242.354 274.399 241.824C274.404 241.303 274.291 240.832 274.059 240.41C273.831 239.989 273.516 239.655 273.114 239.409C272.711 239.163 272.252 239.039 271.736 239.039C271.353 239.039 270.995 239.113 270.664 239.26C270.332 239.406 270.043 239.61 269.797 239.87C269.551 240.126 269.357 240.424 269.215 240.765C269.077 241.101 269.006 241.461 269.002 241.845C269.006 242.351 269.125 242.818 269.357 243.244C269.589 243.67 269.908 244.011 270.316 244.267C270.723 244.522 271.185 244.65 271.701 244.65ZM284.733 246.859C283.564 246.859 282.56 246.563 281.722 245.971C280.889 245.375 280.247 244.515 279.797 243.393C279.352 242.266 279.13 240.91 279.13 239.324C279.134 237.737 279.359 236.388 279.804 235.275C280.254 234.158 280.896 233.306 281.729 232.718C282.567 232.131 283.569 231.838 284.733 231.838C285.898 231.838 286.899 232.131 287.738 232.718C288.576 233.306 289.217 234.158 289.662 235.275C290.112 236.393 290.337 237.742 290.337 239.324C290.337 240.914 290.112 242.273 289.662 243.4C289.217 244.522 288.576 245.379 287.738 245.971C286.904 246.563 285.903 246.859 284.733 246.859ZM284.733 244.636C285.642 244.636 286.36 244.189 286.885 243.294C287.416 242.394 287.681 241.071 287.681 239.324C287.681 238.168 287.56 237.198 287.319 236.412C287.077 235.626 286.736 235.034 286.296 234.636C285.855 234.234 285.335 234.032 284.733 234.032C283.829 234.032 283.114 234.482 282.588 235.382C282.063 236.277 281.798 237.591 281.793 239.324C281.788 240.484 281.904 241.459 282.141 242.25C282.382 243.04 282.723 243.637 283.164 244.039C283.604 244.437 284.127 244.636 284.733 244.636Z" fill="#02003D"/>
<path d="M259.02 256.584H257.963C257.901 256.28 257.791 256.013 257.635 255.783C257.482 255.553 257.294 255.359 257.073 255.203C256.854 255.044 256.611 254.925 256.344 254.845C256.077 254.766 255.799 254.726 255.509 254.726C254.98 254.726 254.502 254.859 254.073 255.126C253.647 255.394 253.307 255.787 253.054 256.307C252.804 256.827 252.679 257.465 252.679 258.22C252.679 258.976 252.804 259.614 253.054 260.134C253.307 260.653 253.647 261.047 254.073 261.314C254.502 261.581 254.98 261.715 255.509 261.715C255.799 261.715 256.077 261.675 256.344 261.595C256.611 261.516 256.854 261.398 257.073 261.242C257.294 261.082 257.482 260.888 257.635 260.658C257.791 260.425 257.901 260.158 257.963 259.857H259.02C258.941 260.303 258.796 260.702 258.585 261.054C258.375 261.406 258.114 261.706 257.801 261.953C257.489 262.197 257.138 262.384 256.749 262.511C256.362 262.639 255.949 262.703 255.509 262.703C254.764 262.703 254.102 262.521 253.523 262.158C252.943 261.794 252.487 261.277 252.155 260.607C251.823 259.936 251.656 259.141 251.656 258.22C251.656 257.3 251.823 256.504 252.155 255.834C252.487 255.163 252.943 254.646 253.523 254.283C254.102 253.919 254.764 253.737 255.509 253.737C255.949 253.737 256.362 253.801 256.749 253.929C257.138 254.057 257.489 254.244 257.801 254.492C258.114 254.736 258.375 255.034 258.585 255.386C258.796 255.736 258.941 256.135 259.02 256.584ZM261.597 258.646V262.584H260.591V253.857H261.597V257.061H261.682C261.836 256.723 262.066 256.455 262.373 256.256C262.682 256.054 263.094 255.953 263.609 255.953C264.055 255.953 264.445 256.043 264.78 256.222C265.116 256.398 265.376 256.669 265.56 257.036C265.748 257.399 265.841 257.862 265.841 258.425V262.584H264.836V258.493C264.836 257.973 264.701 257.571 264.431 257.287C264.164 257 263.793 256.857 263.319 256.857C262.989 256.857 262.694 256.926 262.432 257.065C262.174 257.205 261.969 257.408 261.819 257.675C261.671 257.942 261.597 258.266 261.597 258.646ZM270.426 262.72C269.795 262.72 269.251 262.581 268.794 262.303C268.339 262.021 267.988 261.629 267.741 261.126C267.497 260.621 267.375 260.033 267.375 259.362C267.375 258.692 267.497 258.101 267.741 257.59C267.988 257.075 268.332 256.675 268.772 256.388C269.215 256.098 269.732 255.953 270.323 255.953C270.664 255.953 271.001 256.01 271.333 256.124C271.666 256.237 271.968 256.422 272.241 256.678C272.514 256.93 272.731 257.266 272.893 257.683C273.055 258.101 273.136 258.615 273.136 259.226V259.652H268.09V258.783H272.113C272.113 258.413 272.039 258.084 271.892 257.794C271.747 257.504 271.539 257.276 271.269 257.108C271.002 256.94 270.687 256.857 270.323 256.857C269.923 256.857 269.576 256.956 269.284 257.155C268.994 257.351 268.771 257.607 268.615 257.922C268.458 258.237 268.38 258.575 268.38 258.936V259.516C268.38 260.01 268.465 260.429 268.636 260.773C268.809 261.114 269.049 261.374 269.356 261.553C269.663 261.729 270.019 261.817 270.426 261.817C270.69 261.817 270.928 261.78 271.142 261.706C271.357 261.629 271.544 261.516 271.7 261.365C271.856 261.212 271.977 261.021 272.062 260.794L273.034 261.067C272.931 261.396 272.759 261.686 272.518 261.936C272.276 262.183 271.978 262.376 271.623 262.516C271.268 262.652 270.869 262.72 270.426 262.72ZM277.325 262.72C276.711 262.72 276.183 262.575 275.74 262.286C275.296 261.996 274.955 261.597 274.717 261.088C274.478 260.58 274.359 259.999 274.359 259.345C274.359 258.68 274.481 258.094 274.725 257.585C274.973 257.074 275.316 256.675 275.757 256.388C276.2 256.098 276.717 255.953 277.308 255.953C277.768 255.953 278.183 256.038 278.552 256.209C278.921 256.379 279.224 256.618 279.46 256.925C279.696 257.232 279.842 257.59 279.899 257.999H278.893C278.816 257.7 278.646 257.436 278.382 257.206C278.12 256.973 277.768 256.857 277.325 256.857C276.933 256.857 276.589 256.959 276.294 257.163C276.001 257.365 275.772 257.651 275.607 258.02C275.446 258.386 275.365 258.817 275.365 259.311C275.365 259.817 275.444 260.257 275.603 260.632C275.765 261.007 275.992 261.298 276.285 261.506C276.58 261.713 276.927 261.817 277.325 261.817C277.586 261.817 277.823 261.771 278.036 261.68C278.25 261.59 278.43 261.459 278.578 261.288C278.725 261.118 278.83 260.913 278.893 260.675H279.899C279.842 261.061 279.701 261.409 279.477 261.719C279.255 262.026 278.961 262.27 278.595 262.452C278.231 262.631 277.808 262.72 277.325 262.72ZM282.306 260.197L282.289 258.953H282.494L285.357 256.038H286.602L283.551 259.124H283.465L282.306 260.197ZM281.369 262.584V253.857H282.375V262.584H281.369ZM285.528 262.584L282.971 259.345L283.687 258.646L286.806 262.584H285.528ZM291.095 258.374V259.311H287.277V258.374H291.095ZM292.865 262.584V256.038H293.871V262.584H292.865ZM293.376 254.947C293.18 254.947 293.011 254.881 292.869 254.747C292.73 254.614 292.66 254.453 292.66 254.266C292.66 254.078 292.73 253.918 292.869 253.784C293.011 253.651 293.18 253.584 293.376 253.584C293.572 253.584 293.74 253.651 293.879 253.784C294.021 253.918 294.092 254.078 294.092 254.266C294.092 254.453 294.021 254.614 293.879 254.747C293.74 254.881 293.572 254.947 293.376 254.947ZM296.718 258.646V262.584H295.713V256.038H296.684V257.061H296.769C296.923 256.729 297.156 256.462 297.468 256.26C297.781 256.055 298.184 255.953 298.678 255.953C299.122 255.953 299.509 256.044 299.842 256.226C300.174 256.405 300.433 256.678 300.617 257.044C300.802 257.408 300.894 257.868 300.894 258.425V262.584H299.889V258.493C299.889 257.979 299.755 257.578 299.488 257.291C299.221 257.001 298.855 256.857 298.389 256.857C298.068 256.857 297.781 256.926 297.528 257.065C297.278 257.205 297.08 257.408 296.936 257.675C296.791 257.942 296.718 258.266 296.718 258.646ZM307.368 257.504L306.465 257.76C306.408 257.609 306.324 257.463 306.214 257.321C306.106 257.176 305.958 257.057 305.77 256.963C305.583 256.869 305.343 256.822 305.05 256.822C304.65 256.822 304.316 256.915 304.049 257.099C303.785 257.281 303.653 257.513 303.653 257.794C303.653 258.044 303.743 258.242 303.925 258.386C304.107 258.531 304.391 258.652 304.778 258.749L305.749 258.987C306.334 259.129 306.77 259.347 307.057 259.639C307.344 259.929 307.488 260.303 307.488 260.76C307.488 261.135 307.38 261.47 307.164 261.766C306.951 262.061 306.653 262.294 306.269 262.465C305.886 262.635 305.439 262.72 304.931 262.72C304.263 262.72 303.711 262.575 303.273 262.286C302.836 261.996 302.559 261.572 302.442 261.016L303.397 260.777C303.488 261.129 303.66 261.394 303.912 261.57C304.168 261.746 304.502 261.834 304.914 261.834C305.383 261.834 305.755 261.734 306.03 261.536C306.309 261.334 306.448 261.092 306.448 260.811C306.448 260.584 306.368 260.394 306.209 260.24C306.05 260.084 305.806 259.967 305.476 259.891L304.386 259.635C303.786 259.493 303.346 259.273 303.064 258.974C302.786 258.673 302.647 258.297 302.647 257.845C302.647 257.476 302.751 257.149 302.958 256.865C303.168 256.581 303.454 256.358 303.814 256.196C304.178 256.034 304.59 255.953 305.05 255.953C305.698 255.953 306.207 256.095 306.576 256.379C306.948 256.663 307.212 257.038 307.368 257.504Z" fill="#ADB5CE"/>
<rect x="341.11" y="213.482" width="10.8176" height="10.8176" fill="#D5DBED"/>
<rect x="356.135" y="213.482" width="10.8176" height="10.8176" fill="#D5DBED"/>
<rect x="386.785" y="213.482" width="10.8176" height="10.8176" fill="#D5DBED"/>
<rect x="401.809" y="213.482" width="10.8176" height="10.8176" fill="#D5DBED"/>
<rect x="416.834" y="213.482" width="10.8176" height="10.8176" fill="#D5DBED"/>
<rect x="431.858" y="213.482" width="10.2166" height="10.8176" fill="#D5DBED"/>
<rect x="446.882" y="213.482" width="10.2166" height="10.8176" fill="#D5DBED"/>
<rect x="462.508" y="213.482" width="9.61567" height="10.8176" fill="#D5DBED"/>
<rect x="371.159" y="213.482" width="10.8176" height="10.8176" fill="#D5DBED"/>
<rect x="477.532" y="213.482" width="10.2166" height="10.8176" fill="#D5DBED"/>
<rect x="341.11" y="228.507" width="10.8176" height="10.8176" fill="#D5DBED"/>
<rect x="356.135" y="228.507" width="10.8176" height="10.8176" fill="#D5DBED"/>
<rect x="386.785" y="228.507" width="10.8176" height="10.8176" fill="#D5DBED"/>
<rect x="401.809" y="228.507" width="10.8176" height="10.8176" fill="#D5DBED"/>
<rect x="416.834" y="228.507" width="10.8176" height="10.8176" fill="#D5DBED"/>
<rect x="431.858" y="228.507" width="10.2166" height="10.8176" fill="#D5DBED"/>
<rect x="446.882" y="228.507" width="10.2166" height="10.8176" fill="#D5DBED"/>
<rect x="462.508" y="228.507" width="9.61567" height="10.8176" fill="#D5DBED"/>
<rect x="371.159" y="228.507" width="10.8176" height="10.8176" fill="#D5DBED"/>
<rect x="477.532" y="228.507" width="10.2166" height="10.8176" fill="#D5DBED"/>
<rect x="341.11" y="243.531" width="10.8176" height="10.8176" fill="#D5DBED"/>
<rect x="356.135" y="243.531" width="10.8176" height="10.8176" fill="#D5DBED"/>
<rect x="386.785" y="243.531" width="10.8176" height="10.8176" fill="#D5DBED"/>
<rect x="401.809" y="243.531" width="10.8176" height="10.8176" fill="#D5DBED"/>
<rect x="416.834" y="243.531" width="10.8176" height="10.8176" fill="#D5DBED"/>
<rect x="431.858" y="243.531" width="10.2166" height="10.8176" fill="#D5DBED"/>
<rect x="446.882" y="243.531" width="10.2166" height="10.8176" fill="#D5DBED"/>
<rect x="462.508" y="243.531" width="9.61567" height="10.8176" fill="#D5DBED"/>
<rect x="371.159" y="243.531" width="10.8176" height="10.8176" fill="#D5DBED"/>
<rect x="477.532" y="243.531" width="10.2166" height="10.8176" fill="#D5DBED"/>
<rect x="477.33" y="179.024" width="20.2362" height="18.4333" rx="9" stroke="#D5DBED" stroke-width="2"/>
</g>
<g filter="url(#filter1_d_204_3)">
<rect x="34" y="29" width="131" height="111.17" rx="10" fill="white"/>
<path d="M73.1122 59L70.2884 48.8182H71.9041L73.8878 56.7031H73.9822L76.0455 48.8182H77.6463L79.7095 56.7081H79.804L81.7827 48.8182H83.4034L80.5746 59H79.0284L76.8857 51.3736H76.8061L74.6634 59H73.1122ZM87.2241 59.1541C86.4717 59.1541 85.8237 58.9934 85.2802 58.6719C84.7399 58.3471 84.3223 57.8913 84.0273 57.3047C83.7357 56.7147 83.5898 56.0237 83.5898 55.2315C83.5898 54.4493 83.7357 53.7599 84.0273 53.1634C84.3223 52.5668 84.7333 52.1011 85.2603 51.7663C85.7906 51.4316 86.4104 51.2642 87.1197 51.2642C87.5505 51.2642 87.9682 51.3355 88.3725 51.478C88.7769 51.6205 89.1398 51.8442 89.4613 52.1491C89.7828 52.4541 90.0363 52.8501 90.2219 53.3374C90.4076 53.8213 90.5004 54.4096 90.5004 55.1023V55.6293H84.43V54.5156H89.0437C89.0437 54.1245 88.9641 53.7782 88.805 53.4766C88.646 53.1716 88.4222 52.9313 88.1339 52.7557C87.8488 52.58 87.5141 52.4922 87.1296 52.4922C86.712 52.4922 86.3474 52.5949 86.0359 52.8004C85.7276 53.0026 85.489 53.2678 85.32 53.5959C85.1542 53.9207 85.0714 54.2737 85.0714 54.6548V55.5249C85.0714 56.0353 85.1609 56.4695 85.3398 56.8274C85.5221 57.1854 85.7757 57.4588 86.1005 57.6477C86.4253 57.8333 86.8048 57.9261 87.239 57.9261C87.5207 57.9261 87.7776 57.8864 88.0096 57.8068C88.2416 57.724 88.4421 57.6013 88.6112 57.4389C88.7802 57.2765 88.9094 57.076 88.9989 56.8374L90.4059 57.0909C90.2932 57.5052 90.091 57.8681 89.7994 58.1797C89.511 58.4879 89.1481 58.7282 88.7106 58.9006C88.2764 59.0696 87.7809 59.1541 87.2241 59.1541ZM92.1497 59V51.3636H93.6362V59H92.1497ZM92.9004 50.1854C92.6419 50.1854 92.4198 50.0992 92.2342 49.9268C92.0519 49.7512 91.9608 49.5424 91.9608 49.3004C91.9608 49.0552 92.0519 48.8464 92.2342 48.674C92.4198 48.4983 92.6419 48.4105 92.9004 48.4105C93.1589 48.4105 93.3793 48.4983 93.5616 48.674C93.7472 48.8464 93.84 49.0552 93.84 49.3004C93.84 49.5424 93.7472 49.7512 93.5616 49.9268C93.3793 50.0992 93.1589 50.1854 92.9004 50.1854ZM98.8377 62.0227C98.2312 62.0227 97.7092 61.9432 97.2717 61.7841C96.8375 61.625 96.4828 61.4145 96.2077 61.1527C95.9326 60.8909 95.7272 60.6042 95.5913 60.2926L96.869 59.7656C96.9585 59.9115 97.0778 60.0656 97.2269 60.228C97.3794 60.3937 97.5849 60.5346 97.8434 60.6506C98.1052 60.7666 98.4416 60.8246 98.8526 60.8246C99.4161 60.8246 99.8817 60.687 100.25 60.4119C100.618 60.1402 100.801 59.706 100.801 59.1094V57.608H100.707C100.618 57.7704 100.488 57.951 100.319 58.1499C100.154 58.3487 99.9248 58.5211 99.6332 58.6669C99.3415 58.8127 98.962 58.8857 98.4947 58.8857C97.8915 58.8857 97.3479 58.7448 96.864 58.4631C96.3834 58.178 96.0022 57.7588 95.7205 57.2053C95.4421 56.6484 95.3029 55.964 95.3029 55.152C95.3029 54.34 95.4405 53.6439 95.7156 53.0639C95.994 52.4839 96.3751 52.0398 96.859 51.7315C97.3429 51.42 97.8915 51.2642 98.5046 51.2642C98.9786 51.2642 99.3614 51.3438 99.6531 51.5028C99.9447 51.6586 100.172 51.8409 100.334 52.0497C100.5 52.2585 100.627 52.4425 100.717 52.6016H100.826V51.3636H102.283V59.169C102.283 59.8253 102.131 60.3639 101.826 60.7848C101.521 61.2057 101.108 61.5173 100.588 61.7195C100.071 61.9216 99.4873 62.0227 98.8377 62.0227ZM98.8228 57.6527C99.2504 57.6527 99.6116 57.5533 99.9066 57.3544C100.205 57.1522 100.43 56.8639 100.583 56.4893C100.739 56.1115 100.816 55.6591 100.816 55.1321C100.816 54.6184 100.74 54.166 100.588 53.7749C100.435 53.3838 100.212 53.0788 99.9165 52.8601C99.6216 52.638 99.257 52.527 98.8228 52.527C98.3754 52.527 98.0025 52.643 97.7042 52.875C97.4059 53.1037 97.1805 53.4152 97.0281 53.8097C96.8789 54.2041 96.8043 54.6449 96.8043 55.1321C96.8043 55.6326 96.8806 56.0717 97.033 56.4496C97.1855 56.8274 97.4109 57.1224 97.7092 57.3345C98.0108 57.5466 98.382 57.6527 98.8228 57.6527ZM105.763 54.4659V59H104.277V48.8182H105.743V52.6065H105.838C106.017 52.1955 106.29 51.8691 106.658 51.6271C107.026 51.3852 107.507 51.2642 108.1 51.2642C108.623 51.2642 109.081 51.3719 109.472 51.5874C109.866 51.8028 110.171 52.1243 110.387 52.5518C110.605 52.9761 110.715 53.5064 110.715 54.1428V59H109.228V54.3217C109.228 53.7616 109.084 53.3274 108.796 53.0192C108.507 52.7076 108.106 52.5518 107.593 52.5518C107.241 52.5518 106.926 52.6264 106.648 52.7756C106.373 52.9247 106.156 53.1435 105.997 53.4318C105.841 53.7169 105.763 54.0616 105.763 54.4659ZM116.263 51.3636V52.5568H112.092V51.3636H116.263ZM113.211 49.5341H114.697V56.7578C114.697 57.0462 114.74 57.2633 114.826 57.4091C114.913 57.5516 115.024 57.6494 115.159 57.7024C115.299 57.7521 115.449 57.777 115.612 57.777C115.731 57.777 115.836 57.7687 115.925 57.7521C116.015 57.7356 116.084 57.7223 116.134 57.7124L116.402 58.9403C116.316 58.9735 116.194 59.0066 116.034 59.0398C115.875 59.0762 115.676 59.0961 115.438 59.0994C115.047 59.1061 114.682 59.0365 114.344 58.8906C114.006 58.7448 113.733 58.5194 113.524 58.2145C113.315 57.9096 113.211 57.5268 113.211 57.0661V49.5341Z" fill="#02003D"/>
<path d="M58.8379 43.0214H57.6761C57.5805 42.7292 57.431 42.4575 57.2355 42.2202C57.0088 41.9667 56.7308 41.7642 56.4201 41.6261C56.1093 41.488 55.7728 41.4174 55.4327 41.419H51.042C50.6993 41.4151 50.3596 41.4846 50.0459 41.6228C49.7322 41.761 49.4517 41.9647 49.2232 42.2202C49.022 42.4562 48.8671 42.728 48.7665 43.0214H47.6208C46.9833 43.0214 46.3719 43.2747 45.9211 43.7254C45.4704 44.1762 45.2171 44.7876 45.2171 45.4251V55.0398C45.2171 55.6773 45.4704 56.2886 45.9211 56.7394C46.3719 57.1902 46.9833 57.4434 47.6208 57.4434H58.8379C59.4754 57.4434 60.0868 57.1902 60.5376 56.7394C60.9883 56.2886 61.2416 55.6773 61.2416 55.0398V45.4251C61.2416 44.7876 60.9883 44.1762 60.5376 43.7254C60.0868 43.2747 59.4754 43.0214 58.8379 43.0214ZM50.4411 43.2938C50.5162 43.2084 50.6086 43.1399 50.7122 43.0929C50.8158 43.0459 50.9283 43.0216 51.042 43.0214H55.4167C55.5305 43.0216 55.6429 43.0459 55.7465 43.0929C55.8501 43.1399 55.9425 43.2084 56.0176 43.2938C56.0932 43.378 56.1502 43.4772 56.1847 43.5849C56.2192 43.6926 56.2305 43.8064 56.2179 43.9188L55.8173 47.1237C55.7937 47.3191 55.699 47.499 55.5512 47.629C55.4034 47.7591 55.2129 47.8302 55.0161 47.8288H53.7021L54.6155 45.9058C54.6895 45.7173 54.6894 45.5076 54.6151 45.3191C54.5408 45.1307 54.3979 44.9773 54.2151 44.89C54.0323 44.8026 53.8232 44.7878 53.6299 44.8484C53.4366 44.9091 53.2734 45.0407 53.1733 45.2168L51.9234 47.8288H51.4426C51.2458 47.8302 51.0553 47.7591 50.9075 47.629C50.7598 47.499 50.665 47.3191 50.6414 47.1237L50.2408 43.9188C50.2282 43.8064 50.2395 43.6926 50.274 43.5849C50.3086 43.4772 50.3655 43.378 50.4411 43.2938ZM59.6391 55.0398C59.6391 55.2523 59.5547 55.4561 59.4045 55.6063C59.2542 55.7566 59.0504 55.841 58.8379 55.841H47.6208C47.4083 55.841 47.2045 55.7566 47.0542 55.6063C46.904 55.4561 46.8196 55.2523 46.8196 55.0398V45.4251C46.8196 45.2126 46.904 45.0088 47.0542 44.8585C47.2045 44.7083 47.4083 44.6239 47.6208 44.6239H48.7185L49.055 47.324C49.1277 47.9088 49.4126 48.4466 49.8558 48.8351C50.2989 49.2236 50.8693 49.4357 51.4587 49.4312H55.0321C55.6214 49.4357 56.1918 49.2236 56.635 48.8351C57.0781 48.4466 57.3631 47.9088 57.4358 47.324L57.7402 44.6239H58.8379C59.0504 44.6239 59.2542 44.7083 59.4045 44.8585C59.5547 45.0088 59.6391 45.2126 59.6391 45.4251V55.0398ZM54.8318 52.6361H51.6269C51.4144 52.6361 51.2106 52.7205 51.0604 52.8708C50.9101 53.021 50.8257 53.2248 50.8257 53.4373C50.8257 53.6498 50.9101 53.8536 51.0604 54.0039C51.2106 54.1541 51.4144 54.2385 51.6269 54.2385H54.8318C55.0443 54.2385 55.2481 54.1541 55.3984 54.0039C55.5486 53.8536 55.633 53.6498 55.633 53.4373C55.633 53.2248 55.5486 53.021 55.3984 52.8708C55.2481 52.7205 55.0443 52.6361 54.8318 52.6361Z" fill="#5955ED"/>
<path d="M85.0511 95.1591C84.2367 95.1591 83.517 95.0189 82.892 94.7386C82.2708 94.4583 81.7841 94.072 81.4318 93.5795C81.0795 93.0871 80.9053 92.5265 80.9091 91.8977C80.9053 91.4053 81.0057 90.9527 81.2102 90.5398C81.4186 90.1231 81.7008 89.7765 82.0568 89.5C82.4129 89.2197 82.8106 89.0417 83.25 88.9659V88.8977C82.6705 88.7576 82.2064 88.447 81.858 87.9659C81.5095 87.4848 81.3371 86.9318 81.3409 86.3068C81.3371 85.7121 81.4943 85.1818 81.8125 84.7159C82.1345 84.2462 82.5758 83.8769 83.1364 83.608C83.697 83.339 84.3352 83.2045 85.0511 83.2045C85.7595 83.2045 86.392 83.3409 86.9489 83.6136C87.5095 83.8826 87.9508 84.2519 88.2727 84.7216C88.5947 85.1875 88.7576 85.7159 88.7614 86.3068C88.7576 86.9318 88.5795 87.4848 88.2273 87.9659C87.875 88.447 87.4167 88.7576 86.8523 88.8977V88.9659C87.2879 89.0417 87.6799 89.2197 88.0284 89.5C88.3807 89.7765 88.661 90.1231 88.8693 90.5398C89.0814 90.9527 89.1894 91.4053 89.1932 91.8977C89.1894 92.5265 89.0114 93.0871 88.6591 93.5795C88.3068 94.072 87.8182 94.4583 87.1932 94.7386C86.572 95.0189 85.858 95.1591 85.0511 95.1591ZM85.0511 93.7216C85.5322 93.7216 85.9489 93.642 86.3011 93.483C86.6534 93.3201 86.9261 93.0947 87.1193 92.8068C87.3125 92.5152 87.411 92.1742 87.4148 91.7841C87.411 91.3788 87.3049 91.0208 87.0966 90.7102C86.892 90.3996 86.6136 90.1553 86.2614 89.9773C85.9091 89.7992 85.5057 89.7102 85.0511 89.7102C84.5928 89.7102 84.1856 89.7992 83.8295 89.9773C83.4735 90.1553 83.1932 90.3996 82.9886 90.7102C82.7841 91.0208 82.6837 91.3788 82.6875 91.7841C82.6837 92.1742 82.7765 92.5152 82.9659 92.8068C83.1591 93.0947 83.4337 93.3201 83.7898 93.483C84.1458 93.642 84.5663 93.7216 85.0511 93.7216ZM85.0511 88.3068C85.4375 88.3068 85.7803 88.2292 86.0795 88.0739C86.3788 87.9186 86.6136 87.7027 86.7841 87.4261C86.9583 87.1496 87.0473 86.8258 87.0511 86.4545C87.0473 86.0909 86.9602 85.7727 86.7898 85.5C86.6231 85.2273 86.3902 85.017 86.0909 84.8693C85.7917 84.7178 85.4451 84.642 85.0511 84.642C84.6496 84.642 84.2973 84.7178 83.9943 84.8693C83.6951 85.017 83.4621 85.2273 83.2955 85.5C83.1288 85.7727 83.0473 86.0909 83.0511 86.4545C83.0473 86.8258 83.1307 87.1496 83.3011 87.4261C83.4716 87.7027 83.7064 87.9186 84.0057 88.0739C84.3087 88.2292 84.6572 88.3068 85.0511 88.3068ZM95.2798 95.1932C94.3821 95.1894 93.6151 94.9527 92.9787 94.483C92.3423 94.0133 91.8556 93.3295 91.5185 92.4318C91.1813 91.5341 91.0128 90.4527 91.0128 89.1875C91.0128 87.9261 91.1813 86.8485 91.5185 85.9545C91.8594 85.0606 92.348 84.3788 92.9844 83.9091C93.6245 83.4394 94.3897 83.2045 95.2798 83.2045C96.17 83.2045 96.9332 83.4413 97.5696 83.9148C98.206 84.3845 98.6927 85.0663 99.0298 85.9602C99.3707 86.8504 99.5412 87.9261 99.5412 89.1875C99.5412 90.4564 99.3726 91.5398 99.0355 92.4375C98.6984 93.3314 98.2116 94.0152 97.5753 94.4886C96.9389 94.9583 96.1738 95.1932 95.2798 95.1932ZM95.2798 93.6761C96.0677 93.6761 96.6832 93.2917 97.1264 92.5227C97.5734 91.7538 97.7969 90.642 97.7969 89.1875C97.7969 88.2216 97.6946 87.4053 97.4901 86.7386C97.2893 86.0682 96.9995 85.5606 96.6207 85.2159C96.2457 84.8674 95.7988 84.6932 95.2798 84.6932C94.4957 84.6932 93.8802 85.0795 93.4332 85.8523C92.9863 86.625 92.7609 87.7367 92.7571 89.1875C92.7571 90.1572 92.8575 90.9773 93.0582 91.6477C93.2628 92.3144 93.5526 92.8201 93.9276 93.1648C94.3026 93.5057 94.7533 93.6761 95.2798 93.6761Z" fill="#02003D"/>
<path d="M103.142 92.0398L103.131 89.9659H103.426L106.903 86.2727H108.938L104.972 90.4773H104.705L103.142 92.0398ZM101.58 95V83.3636H103.278V95H101.58ZM107.091 95L103.966 90.8523L105.136 89.6648L109.176 95H107.091ZM113.786 98.4545C113.092 98.4545 112.496 98.3636 111.996 98.1818C111.5 98 111.094 97.7595 110.78 97.4602C110.465 97.161 110.231 96.8333 110.075 96.4773L111.536 95.875C111.638 96.0417 111.774 96.2178 111.945 96.4034C112.119 96.5928 112.354 96.7538 112.649 96.8864C112.948 97.0189 113.333 97.0852 113.803 97.0852C114.446 97.0852 114.979 96.928 115.399 96.6136C115.82 96.303 116.03 95.8068 116.03 95.125V93.4091H115.922C115.82 93.5947 115.672 93.8011 115.479 94.0284C115.289 94.2557 115.028 94.4527 114.695 94.6193C114.361 94.786 113.928 94.8693 113.393 94.8693C112.704 94.8693 112.083 94.7083 111.53 94.3864C110.981 94.0606 110.545 93.5814 110.223 92.9489C109.905 92.3125 109.746 91.5303 109.746 90.6023C109.746 89.6742 109.903 88.8788 110.217 88.2159C110.536 87.553 110.971 87.0455 111.524 86.6932C112.077 86.3371 112.704 86.1591 113.405 86.1591C113.946 86.1591 114.384 86.25 114.717 86.4318C115.051 86.6098 115.31 86.8182 115.496 87.0568C115.685 87.2955 115.831 87.5057 115.933 87.6875H116.058V86.2727H117.723V95.1932C117.723 95.9432 117.549 96.5587 117.2 97.0398C116.852 97.5208 116.38 97.8769 115.786 98.108C115.195 98.339 114.528 98.4545 113.786 98.4545ZM113.768 93.4602C114.257 93.4602 114.67 93.3466 115.007 93.1193C115.348 92.8883 115.606 92.5587 115.78 92.1307C115.958 91.6989 116.047 91.1818 116.047 90.5795C116.047 89.9924 115.96 89.4754 115.786 89.0284C115.611 88.5814 115.356 88.233 115.018 87.983C114.681 87.7292 114.265 87.6023 113.768 87.6023C113.257 87.6023 112.831 87.7348 112.49 88C112.149 88.2614 111.892 88.6174 111.717 89.0682C111.547 89.5189 111.462 90.0227 111.462 90.5795C111.462 91.1515 111.549 91.6534 111.723 92.0852C111.897 92.517 112.155 92.8542 112.496 93.0966C112.84 93.339 113.265 93.4602 113.768 93.4602Z" fill="#ADB5CE"/>
<path d="M66.5582 128.136C65.973 128.136 65.4631 127.99 65.0284 127.697C64.5966 127.405 64.2614 127.004 64.0227 126.496C63.7841 125.987 63.6648 125.408 63.6648 124.757C63.6648 124.101 63.7855 123.517 64.027 123.006C64.2713 122.494 64.6094 122.094 65.0412 121.804C65.473 121.511 65.9744 121.365 66.5455 121.365C66.983 121.365 67.3793 121.45 67.7344 121.621C68.0895 121.788 68.3821 122.026 68.6122 122.332C68.8452 122.636 68.9915 122.991 69.0511 123.398H68.2841C68.2045 123.028 68.0128 122.713 67.7088 122.452C67.4077 122.187 67.0241 122.055 66.5582 122.055C66.1406 122.055 65.7713 122.169 65.4503 122.396C65.1293 122.621 64.8778 122.935 64.696 123.338C64.517 123.739 64.4276 124.203 64.4276 124.732C64.4276 125.263 64.5156 125.733 64.6918 126.142C64.8679 126.548 65.1151 126.866 65.4332 127.097C65.7543 127.327 66.1293 127.442 66.5582 127.442C66.848 127.442 67.1122 127.388 67.3509 127.28C67.5923 127.169 67.794 127.013 67.956 126.811C68.1207 126.609 68.2315 126.369 68.2884 126.091H69.0554C68.9986 126.486 68.858 126.838 68.6335 127.148C68.4119 127.455 68.1236 127.696 67.7685 127.872C67.4162 128.048 67.0128 128.136 66.5582 128.136ZM74.8402 125.499V121.455H75.5987V128H74.8402V126.913H74.7805C74.6271 127.249 74.3842 127.528 74.0518 127.753C73.7195 127.974 73.3132 128.085 72.8331 128.085C72.4155 128.085 72.0447 127.994 71.7209 127.812C71.397 127.628 71.1428 127.358 70.9581 127.003C70.7734 126.648 70.6811 126.212 70.6811 125.695V121.455H71.4396V125.648C71.4396 126.159 71.5902 126.571 71.8913 126.884C72.1925 127.193 72.5788 127.348 73.0504 127.348C73.3459 127.348 73.63 127.277 73.9027 127.135C74.1754 126.993 74.3999 126.786 74.576 126.513C74.7521 126.237 74.8402 125.899 74.8402 125.499ZM77.6069 128V121.455H78.3441V122.46H78.3995C78.5302 122.131 78.7575 121.865 79.0813 121.663C79.408 121.459 79.7773 121.357 80.1893 121.357C80.2518 121.357 80.3214 121.358 80.3981 121.361C80.4748 121.364 80.5387 121.366 80.5898 121.369V122.141C80.5558 122.135 80.4961 122.126 80.4109 122.115C80.3256 122.104 80.2333 122.098 80.1339 122.098C79.793 122.098 79.489 122.17 79.2219 122.315C78.9577 122.457 78.7489 122.655 78.5955 122.908C78.4421 123.161 78.3654 123.449 78.3654 123.773V128H77.6069ZM81.8842 128V121.455H82.6214V122.46H82.6768C82.8075 122.131 83.0348 121.865 83.3587 121.663C83.6854 121.459 84.0547 121.357 84.4666 121.357C84.5291 121.357 84.5987 121.358 84.6754 121.361C84.7521 121.364 84.8161 121.366 84.8672 121.369V122.141C84.8331 122.135 84.7734 122.126 84.6882 122.115C84.603 122.104 84.5107 122.098 84.4112 122.098C84.0703 122.098 83.7663 122.17 83.4993 122.315C83.2351 122.457 83.0263 122.655 82.8729 122.908C82.7195 123.161 82.6428 123.449 82.6428 123.773V128H81.8842ZM88.6087 128.136C87.9979 128.136 87.4695 127.994 87.0234 127.71C86.5774 127.423 86.2322 127.027 85.9879 126.521C85.7464 126.013 85.6257 125.428 85.6257 124.766C85.6257 124.107 85.7464 123.521 85.9879 123.01C86.2322 122.496 86.5689 122.094 86.9979 121.804C87.4297 121.511 87.9283 121.365 88.4936 121.365C88.8487 121.365 89.1911 121.43 89.5206 121.561C89.8501 121.689 90.1456 121.886 90.407 122.153C90.6712 122.418 90.88 122.751 91.0334 123.155C91.1868 123.555 91.2635 124.03 91.2635 124.578V124.953H86.1499V124.284H90.4879C90.4879 123.864 90.4027 123.486 90.2322 123.151C90.0646 122.812 89.8303 122.545 89.5291 122.349C89.2308 122.153 88.8857 122.055 88.4936 122.055C88.0788 122.055 87.7138 122.166 87.3984 122.388C87.0831 122.609 86.8359 122.902 86.657 123.266C86.4808 123.629 86.3913 124.027 86.3885 124.459V124.859C86.3885 125.379 86.478 125.834 86.657 126.223C86.8388 126.609 87.0959 126.909 87.4283 127.122C87.7607 127.335 88.1541 127.442 88.6087 127.442C88.9183 127.442 89.1896 127.393 89.4226 127.297C89.6584 127.2 89.8558 127.071 90.0149 126.909C90.1768 126.744 90.299 126.564 90.3814 126.368L91.1016 126.602C91.0021 126.878 90.8388 127.132 90.6115 127.365C90.3871 127.598 90.1058 127.786 89.7678 127.928C89.4325 128.067 89.0462 128.136 88.6087 128.136ZM93.6935 123.909V128H92.935V121.455H93.6722V122.482H93.7404C93.8938 122.146 94.1325 121.878 94.4563 121.676C94.783 121.472 95.1864 121.369 95.6665 121.369C96.1069 121.369 96.4933 121.462 96.8256 121.646C97.1609 121.828 97.4208 122.097 97.6055 122.452C97.793 122.807 97.8867 123.243 97.8867 123.76V128H97.1282V123.807C97.1282 123.27 96.9776 122.845 96.6765 122.533C96.3782 122.22 95.9776 122.064 95.4748 122.064C95.131 122.064 94.8256 122.138 94.5586 122.286C94.2915 122.433 94.0799 122.646 93.9237 122.925C93.7702 123.2 93.6935 123.528 93.6935 123.909ZM102.462 121.455V122.115H99.3388V121.455H102.462ZM100.315 119.886H101.077V126.291C101.077 126.564 101.124 126.778 101.218 126.935C101.312 127.088 101.434 127.197 101.585 127.263C101.735 127.325 101.896 127.357 102.066 127.357C102.165 127.357 102.251 127.351 102.322 127.339C102.393 127.325 102.455 127.311 102.509 127.297L102.671 127.983C102.597 128.011 102.506 128.037 102.398 128.06C102.29 128.085 102.157 128.098 101.998 128.098C101.719 128.098 101.451 128.037 101.192 127.915C100.937 127.793 100.727 127.611 100.562 127.369C100.397 127.128 100.315 126.828 100.315 126.47V119.886ZM109.013 128L107.036 121.455H107.837L109.388 126.854H109.444L110.99 121.455H111.796L113.33 126.841H113.39L114.941 121.455H115.742L113.765 128H112.98L111.429 122.635H111.348L109.797 128H109.013ZM119.64 128.136C119.029 128.136 118.501 127.994 118.055 127.71C117.609 127.423 117.263 127.027 117.019 126.521C116.778 126.013 116.657 125.428 116.657 124.766C116.657 124.107 116.778 123.521 117.019 123.01C117.263 122.496 117.6 122.094 118.029 121.804C118.461 121.511 118.96 121.365 119.525 121.365C119.88 121.365 120.222 121.43 120.552 121.561C120.881 121.689 121.177 121.886 121.438 122.153C121.702 122.418 121.911 122.751 122.065 123.155C122.218 123.555 122.295 124.03 122.295 124.578V124.953H117.181V124.284H121.519C121.519 123.864 121.434 123.486 121.263 123.151C121.096 122.812 120.862 122.545 120.56 122.349C120.262 122.153 119.917 122.055 119.525 122.055C119.11 122.055 118.745 122.166 118.43 122.388C118.114 122.609 117.867 122.902 117.688 123.266C117.512 123.629 117.423 124.027 117.42 124.459V124.859C117.42 125.379 117.509 125.834 117.688 126.223C117.87 126.609 118.127 126.909 118.46 127.122C118.792 127.335 119.185 127.442 119.64 127.442C119.95 127.442 120.221 127.393 120.454 127.297C120.69 127.2 120.887 127.071 121.046 126.909C121.208 126.744 121.33 126.564 121.413 126.368L122.133 126.602C122.033 126.878 121.87 127.132 121.643 127.365C121.418 127.598 121.137 127.786 120.799 127.928C120.464 128.067 120.077 128.136 119.64 128.136ZM123.975 128V121.455H124.738V128H123.975ZM124.363 120.33C124.206 120.33 124.073 120.277 123.962 120.172C123.851 120.064 123.796 119.935 123.796 119.784C123.796 119.634 123.851 119.506 123.962 119.401C124.073 119.293 124.206 119.239 124.363 119.239C124.519 119.239 124.652 119.293 124.763 119.401C124.874 119.506 124.929 119.634 124.929 119.784C124.929 119.935 124.874 120.064 124.763 120.172C124.652 120.277 124.519 120.33 124.363 120.33ZM129.241 130.591C128.795 130.591 128.404 130.533 128.069 130.416C127.734 130.303 127.451 130.146 127.221 129.947C126.991 129.749 126.812 129.526 126.684 129.278L127.306 128.869C127.4 129.034 127.525 129.196 127.681 129.355C127.84 129.514 128.046 129.646 128.299 129.751C128.555 129.857 128.869 129.909 129.241 129.909C129.82 129.909 130.288 129.764 130.643 129.474C131.001 129.185 131.18 128.734 131.18 128.124V126.649H131.112C131.023 126.848 130.897 127.047 130.732 127.246C130.567 127.442 130.352 127.605 130.085 127.736C129.82 127.866 129.492 127.932 129.1 127.932C128.577 127.932 128.113 127.803 127.707 127.544C127.303 127.286 126.985 126.916 126.752 126.436C126.522 125.953 126.407 125.378 126.407 124.71C126.407 124.048 126.519 123.466 126.744 122.963C126.971 122.46 127.288 122.068 127.694 121.787C128.1 121.506 128.573 121.365 129.113 121.365C129.513 121.365 129.846 121.436 130.11 121.578C130.374 121.717 130.586 121.891 130.745 122.098C130.907 122.305 131.033 122.507 131.124 122.703H131.201V121.455H131.942V128.17C131.942 128.724 131.825 129.18 131.589 129.538C131.353 129.896 131.032 130.161 130.626 130.331C130.219 130.504 129.758 130.591 129.241 130.591ZM129.19 127.237C129.61 127.237 129.969 127.136 130.268 126.935C130.566 126.73 130.795 126.437 130.954 126.057C131.113 125.676 131.192 125.223 131.192 124.697C131.192 124.186 131.114 123.733 130.958 123.338C130.802 122.94 130.575 122.628 130.276 122.401C129.981 122.17 129.619 122.055 129.19 122.055C128.752 122.055 128.383 122.173 128.082 122.409C127.781 122.645 127.553 122.963 127.4 123.364C127.246 123.761 127.17 124.206 127.17 124.697C127.17 125.197 127.248 125.639 127.404 126.023C127.56 126.403 127.789 126.702 128.09 126.918C128.391 127.131 128.758 127.237 129.19 127.237ZM134.709 123.909V128H133.951V119.273H134.709V122.482H134.777C134.931 122.143 135.168 121.874 135.489 121.672C135.813 121.47 136.222 121.369 136.716 121.369C137.159 121.369 137.549 121.46 137.884 121.642C138.219 121.824 138.48 122.092 138.668 122.447C138.855 122.803 138.949 123.24 138.949 123.76V128H138.186V123.807C138.186 123.267 138.036 122.842 137.735 122.533C137.436 122.22 137.033 122.064 136.525 122.064C136.175 122.064 135.864 122.138 135.591 122.286C135.319 122.433 135.103 122.646 134.944 122.925C134.787 123.2 134.709 123.528 134.709 123.909ZM143.525 121.455V122.115H140.401V121.455H143.525ZM141.377 119.886H142.14V126.291C142.14 126.564 142.187 126.778 142.281 126.935C142.374 127.088 142.496 127.197 142.647 127.263C142.798 127.325 142.958 127.357 143.129 127.357C143.228 127.357 143.313 127.351 143.384 127.339C143.455 127.325 143.518 127.311 143.572 127.297L143.734 127.983C143.66 128.011 143.569 128.037 143.461 128.06C143.353 128.085 143.219 128.098 143.06 128.098C142.782 128.098 142.513 128.037 142.255 127.915C141.999 127.793 141.789 127.611 141.624 127.369C141.46 127.128 141.377 126.828 141.377 126.47V119.886Z" fill="#ADB5CE"/>
</g>
<defs>
<filter id="filter0_d_204_3" x="24" y="163" width="499" height="124.59" filterUnits="userSpaceOnUse" color-interpolation-filters="sRGB">
<feFlood flood-opacity="0" result="BackgroundImageFix"/>
<feColorMatrix in="SourceAlpha" type="matrix" values="0 0 0 0 0 0 0 0 0 0 0 0 0 0 0 0 0 0 127 0" result="hardAlpha"/>
<feOffset dy="4"/>
<feGaussianBlur stdDeviation="2"/>
<feComposite in2="hardAlpha" operator="out"/>
<feColorMatrix type="matrix" values="0 0 0 0 0 0 0 0 0 0 0 0 0 0 0 0 0 0 0.25 0"/>
<feBlend mode="normal" in2="BackgroundImageFix" result="effect1_dropShadow_204_3"/>
<feBlend mode="normal" in="SourceGraphic" in2="effect1_dropShadow_204_3" result="shape"/>
</filter>
<filter id="filter1_d_204_3" x="30" y="29" width="139" height="119.17" filterUnits="userSpaceOnUse" color-interpolation-filters="sRGB">
<feFlood flood-opacity="0" result="BackgroundImageFix"/>
<feColorMatrix in="SourceAlpha" type="matrix" values="0 0 0 0 0 0 0 0 0 0 0 0 0 0 0 0 0 0 127 0" result="hardAlpha"/>
<feOffset dy="4"/>
<feGaussianBlur stdDeviation="2"/>
<feComposite in2="hardAlpha" operator="out"/>
<feColorMatrix type="matrix" values="0 0 0 0 0 0 0 0 0 0 0 0 0 0 0 0 0 0 0.25 0"/>
<feBlend mode="normal" in2="BackgroundImageFix" result="effect1_dropShadow_204_3"/>
<feBlend mode="normal" in="SourceGraphic" in2="effect1_dropShadow_204_3" result="shape"/>
</filter>
</defs>
</svg>
